#N canvas 0 22 593 686 10;
#X obj 491 264 line;
#X text 465 97 Explicación;
#X msg 491 172 1 750;
#X text 531 173 Attack;
#X msg 668 162 0.6 500;
#X text 628 171 Decay;
#X obj 576 145 del 750;
#X obj 491 130 bng 15 250 50 0 empty empty empty 17 7 0 10 -262144
-1 -1;
#X obj 576 222 del 1500;
#X msg 576 247 0 1000;
#X obj 576 198 del 500;
#X obj 491 302 vsl 15 80 0 1 0 0 empty empty empty 0 -9 0 10 -4032
-1 -1 0 1;
#X obj 95 714 line~;
#X obj 95 390 pack f f;
#X floatatom 111 180 5 0 0 1 tA - -;
#X obj 95 358 f;
#X obj 125 343 bng 15 250 50 0 empty empty empty 17 7 0 10 -262144
-1 -1;
#X obj 125 454 del;
#X obj 302 454 *;
#X text 1636 51 Trigger divide mensajes;
#X obj 1618 71 trigger bang float;
#X text 1736 69 =;
#X obj 1756 72 t b f;
#X text 1598 89 Convierte mensaje en Bang y Variable;
#X obj 349 437 t b f;
#X obj 254 471 f;
#X obj 254 516 pack f f;
#X floatatom 177 180 5 0 0 1 tD - -;
#X text 326 513 Decay;
#X text 160 391 Attack;
#X obj 125 500 del;
#X obj 125 539 del;
#X floatatom 245 145 5 0 0 1 tS - -;
#X msg 140 599 0;
#X obj 125 629 f;
#X obj 140 573 loadbang;
#X floatatom 245 167 5 0 0 1 tR - -;
#X obj 125 664 pack f f;
#X obj 95 742 outlet~;
#X obj 61 57 inlet;
#X obj 116 47 inlet;
#X obj 197 67 inlet;
#X obj 157 55 inlet;
#X obj 248 58 inlet;
#X obj 286 74 inlet;
#X obj 326 68 inlet;
#X floatatom 111 158 5 0 0 0 - - -;
#X floatatom 177 158 5 0 0 0 - - -;
#X obj 114 137 hsl 55 15 0 1 0 0 empty empty A -2 -8 0 10 -1 -262144
-1 5400 1;
#X obj 180 137 hsl 55 15 0 1 0 0 empty empty %A -2 -8 0 10 -1 -262144
-1 1890 1;
#X obj 169 545 bng 15 250 50 0 empty empty empty 17 7 0 10 -262144
-1 -1;
#X connect 0 0 11 0;
#X connect 2 0 0 0;
#X connect 4 0 0 0;
#X connect 6 0 4 0;
#X connect 6 0 10 0;
#X connect 7 0 2 0;
#X connect 7 0 6 0;
#X connect 8 0 9 0;
#X connect 9 0 0 0;
#X connect 10 0 8 0;
#X connect 12 0 38 0;
#X connect 13 0 12 0;
#X connect 14 0 13 1;
#X connect 14 0 17 1;
#X connect 15 0 13 0;
#X connect 16 0 15 0;
#X connect 16 0 17 0;
#X connect 17 0 25 0;
#X connect 17 0 30 0;
#X connect 18 0 25 1;
#X connect 24 0 18 0;
#X connect 24 1 18 1;
#X connect 25 0 26 0;
#X connect 26 0 12 0;
#X connect 27 0 26 1;
#X connect 27 0 30 1;
#X connect 30 0 31 0;
#X connect 31 0 34 0;
#X connect 32 0 31 1;
#X connect 33 0 34 1;
#X connect 34 0 37 0;
#X connect 35 0 33 0;
#X connect 36 0 37 1;
#X connect 36 0 50 0;
#X connect 37 0 12 0;
#X connect 39 0 16 0;
#X connect 40 0 48 0;
#X connect 41 0 49 0;
#X connect 42 0 14 0;
#X connect 43 0 27 0;
#X connect 44 0 32 0;
#X connect 45 0 36 0;
#X connect 48 0 15 1;
#X connect 48 0 46 0;
#X connect 48 0 18 0;
#X connect 49 0 47 0;
#X connect 49 0 24 0;
#X connect 50 0 34 0;
#X coords 0 -1 1 1 200 100 1 100 100;
