#N canvas 810 160 729 440 10;
#X floatatom 191 69 5 0 11 0 - - -;
#X floatatom 243 69 5 0 11 0 - - -;
#X obj 243 90 f;
#X obj 191 90 t b f;
#X obj 244 114 <;
#X obj 191 114 -;
#X floatatom 191 135 5 0 0 0 - - -;
#X floatatom 244 135 5 0 0 0 - - -;
#X obj 79 157 < 0;
#X obj 108 157 > 0;
#X obj 79 181 sel 0 1;
#X msg 109 206 1;
#X obj 191 177 spigot;
#X obj 235 177 spigot;
#X msg 79 206 1;
#X msg 79 227 0;
#X msg 109 227 0;
#X floatatom 191 210 5 0 0 0 - - -;
#X floatatom 235 210 5 0 0 0 - - -;
#X obj 136 157 sel 0;
#X msg 136 178 0;
#X obj 235 235 expr 12+$f1;
#X floatatom 235 256 5 0 0 0 - - -;
#X obj 214 276 bng 15 250 50 0 empty empty empty 17 7 0 10 -262144
-1 -1;
#X obj 191 236 bng 15 250 50 0 empty empty empty 17 7 0 10 -262144
-1 -1;
#X obj 191 299 f;
#X floatatom 191 320 5 0 0 0 - - -;
#X obj 243 43 inlet;
#X obj 191 342 outlet;
#X obj 175 4 r chordKeySwitch;
#X obj 175 43 switch 2 1;
#X obj 175 24 + 1;
#X obj 203 24 inlet;
#X obj 241 24 r transposeSet;
#X obj 99 15 vradio 10 1 0 3 empty empty empty 0 -8 0 10 -204786 -1
-1 2;
#X connect 0 0 3 0;
#X connect 1 0 2 0;
#X connect 2 0 4 0;
#X connect 2 0 5 0;
#X connect 3 0 2 0;
#X connect 3 1 5 1;
#X connect 3 1 4 1;
#X connect 4 0 7 0;
#X connect 5 0 6 0;
#X connect 6 0 8 0;
#X connect 6 0 9 0;
#X connect 6 0 12 0;
#X connect 6 0 13 0;
#X connect 6 0 19 0;
#X connect 8 0 10 0;
#X connect 10 0 14 0;
#X connect 10 0 15 0;
#X connect 10 1 11 0;
#X connect 10 1 16 0;
#X connect 11 0 13 1;
#X connect 12 0 17 0;
#X connect 13 0 18 0;
#X connect 14 0 12 1;
#X connect 15 0 13 1;
#X connect 16 0 12 1;
#X connect 17 0 24 0;
#X connect 17 0 25 0;
#X connect 18 0 21 0;
#X connect 19 0 20 0;
#X connect 20 0 17 0;
#X connect 21 0 22 0;
#X connect 22 0 23 0;
#X connect 22 0 25 0;
#X connect 25 0 26 0;
#X connect 26 0 28 0;
#X connect 27 0 1 0;
#X connect 29 0 31 0;
#X connect 30 0 0 0;
#X connect 31 0 30 0;
#X connect 31 0 34 0;
#X connect 32 0 30 1;
#X connect 33 0 30 2;
