#N canvas 543 121 762 502 10;
#X obj 163 161 pitchclass;
#X obj 118 188 interval;
#X floatatom 118 209 5 0 0 0 - - -;
#X obj 163 134 inlet;
#X obj 55 257 outlet;
#X obj 206 134 inlet;
#X text 207 118 Chord;
#X text 157 118 Pitch;
#X obj 55 232 customadjust2;
#X floatatom 74 168 5 0 0 0 - - -;
#X connect 0 0 1 1;
#X connect 1 0 2 0;
#X connect 2 0 8 1;
#X connect 3 0 0 0;
#X connect 3 0 8 0;
#X connect 3 0 9 0;
#X connect 5 0 1 0;
#X connect 8 0 4 0;
