#N canvas 0 22 762 502 10;
#X obj 163 161 pitchclass;
#X obj 118 188 interval;
#X floatatom 118 209 5 0 0 0 - - -, f 5;
#X obj 55 232 pitchadjust;
#X obj 163 134 inlet;
#X obj 55 257 outlet;
#X obj 206 134 inlet;
#X text 207 118 Chord;
#X text 157 118 Pitch;
#X connect 0 0 1 1;
#X connect 1 0 2 0;
#X connect 2 0 3 1;
#X connect 3 0 5 0;
#X connect 4 0 0 0;
#X connect 4 0 3 0;
#X connect 6 0 1 0;
