#N canvas -8 -8 1366 685 12;
#X obj 408 125 hsl 60 15 0 1 0 0 empty empty empty -2 -8 0 10 -232576
-1 -1 0 1;
#X floatatom 405 144 5 0 0 0 - - -;
#X obj 405 84 loadbang;
#X obj 439 104 r detune;
#X obj 405 166 sel 0;
#X obj 526 161 expr $f1-$f2;
#X floatatom 526 182 5 0 0 0 - - -;
#X obj 526 139 f;
#X obj 568 139 t b f;
#X obj 526 89 t b;
#X obj 386 254 f;
#X obj 386 189 counter;
#X floatatom 386 210 5 0 0 0 - - -;
#X obj 386 230 sel 0;
#X msg 429 210 0;
#X msg 405 104 0;
#X obj 624 136 f;
#X floatatom 624 157 5 0 0 0 - - -;
#X obj 624 89 t b;
#X obj 667 136 t b f;
#X obj 624 178 expr $f1+$f2;
#X floatatom 624 199 5 0 0 0 - - -;
#X obj 270 93 inlet;
#X text 261 66 Bang for counter;
#X obj 526 33 inlet;
#X text 527 11 Pitch;
#X obj 627 37 inlet;
#X text 628 12 Detune value 0-1;
#X obj 253 306 outlet;
#X text 233 331 Negative detune;
#X text 516 331 Positive detune;
#X obj 529 308 outlet;
#X obj 701 304 outlet;
#X text 691 330 Phase reset;
#X obj 393 308 outlet;
#X text 368 334 Original pitch;
#X floatatom 492 241 5 0 0 0 - - -;
#X obj 526 113 del 5;
#X obj 624 112 del 5;
#X connect 0 0 1 0;
#X connect 0 0 4 0;
#X connect 0 0 8 0;
#X connect 0 0 19 0;
#X connect 2 0 15 0;
#X connect 3 0 0 0;
#X connect 4 0 11 2;
#X connect 4 0 14 0;
#X connect 5 0 6 0;
#X connect 6 0 28 0;
#X connect 7 0 5 0;
#X connect 8 0 7 0;
#X connect 8 1 5 1;
#X connect 9 0 37 0;
#X connect 10 0 32 0;
#X connect 11 0 12 0;
#X connect 12 0 13 0;
#X connect 13 0 10 0;
#X connect 14 0 13 1;
#X connect 15 0 0 0;
#X connect 16 0 17 0;
#X connect 17 0 20 0;
#X connect 18 0 38 0;
#X connect 19 0 16 0;
#X connect 19 1 20 1;
#X connect 20 0 21 0;
#X connect 21 0 31 0;
#X connect 22 0 11 0;
#X connect 24 0 9 0;
#X connect 24 0 7 1;
#X connect 24 0 18 0;
#X connect 24 0 16 1;
#X connect 24 0 34 0;
#X connect 24 0 36 0;
#X connect 26 0 8 0;
#X connect 26 0 19 0;
#X connect 26 0 1 0;
#X connect 37 0 7 0;
#X connect 38 0 16 0;
