#N canvas 0 50 450 300 12;
#X obj 111 84 f;
#X obj 140 84 t b f;
#X obj 111 106 +;
#X floatatom 111 127 5 0 0 0 - - -;
#X obj 111 57 inlet;
#X obj 155 57 inlet;
#X obj 111 157 outlet;
#X connect 0 0 2 0;
#X connect 1 0 0 0;
#X connect 1 1 2 1;
#X connect 2 0 3 0;
#X connect 3 0 6 0;
#X connect 4 0 0 0;
#X connect 5 0 1 0;
