#N canvas -8 -8 1366 685 12;
#X obj 288 162 r vib_depth;
#X obj 250 109 r vib_freq;
#X obj 250 162 osc~;
#X obj 251 216 *~;
#X msg 326 200 0;
#X obj 366 175 del 5;
#X msg 366 200 0;
#X obj 366 91 r vibrato;
#X floatatom 250 134 5 0 0 0 - - -;
#X floatatom 288 185 5 0 0 0 - - -;
#X obj 366 118 sel 0 1;
#X obj 251 274 outlet~;
#X connect 0 0 9 0;
#X connect 1 0 8 0;
#X connect 2 0 3 0;
#X connect 3 0 11 0;
#X connect 4 0 2 0;
#X connect 4 0 3 1;
#X connect 5 0 6 0;
#X connect 6 0 11 0;
#X connect 7 0 10 0;
#X connect 8 0 2 0;
#X connect 9 0 3 1;
#X connect 10 0 4 0;
#X connect 10 0 5 0;
#X connect 10 1 8 0;
#X connect 10 1 9 0;
