#N canvas -8 -8 1366 685 12;
#X obj 167 332 phasor~;
#X obj 166 357 -~ 0.5;
#X obj 166 382 *~ 2;
#X obj 225 332 phasor~;
#X obj 225 384 -~ 0.5;
#X obj 225 409 *~ 2;
#X obj 310 332 trian~;
#X obj 310 360 *~ 1;
#X obj 310 385 -~ 0.35;
#X obj 310 410 *~ 2.75;
#X obj 297 437 r waveform;
#X floatatom 297 459 5 0 0 0 - - -;
#X obj 297 481 sel 0 1 2;
#X msg 184 505 1;
#X msg 184 525 0;
#X msg 242 506 1;
#X msg 242 526 0;
#X msg 297 507 1;
#X msg 297 527 0;
#X obj 182 552 tgl 15 0 empty empty empty 17 7 0 10 -262144 -1 -1 0
1;
#X obj 245 554 tgl 15 0 empty empty empty 17 7 0 10 -262144 -1 -1 1
1;
#X obj 296 555 tgl 15 0 empty empty empty 17 7 0 10 -262144 -1 -1 0
1;
#X obj 151 579 spigot~;
#X obj 209 579 spigot~;
#X obj 264 579 spigot~;
#X obj 225 279 +~;
#X obj 226 303 mtof~;
#X obj 225 251 line~;
#X obj 278 191 r freqport;
#X obj 225 221 pack f f;
#X obj 224 359 expr~ $v1>0.5;
#X obj 67 87 inlet;
#X text 66 65 Pitch;
#X text 170 65 Vibrato;
#X text 272 65 Phase Reset;
#X obj 274 87 inlet;
#X obj 182 648 outlet~;
#X obj 172 85 inlet~;
#X floatatom 303 229 5 0 0 0 - - -;
#X connect 0 0 1 0;
#X connect 1 0 2 0;
#X connect 2 0 22 0;
#X connect 3 0 30 0;
#X connect 4 0 5 0;
#X connect 5 0 23 0;
#X connect 6 0 7 0;
#X connect 7 0 8 0;
#X connect 8 0 9 0;
#X connect 9 0 24 0;
#X connect 10 0 11 0;
#X connect 11 0 12 0;
#X connect 12 0 13 0;
#X connect 12 0 16 0;
#X connect 12 0 18 0;
#X connect 12 1 14 0;
#X connect 12 1 15 0;
#X connect 12 1 18 0;
#X connect 12 2 14 0;
#X connect 12 2 16 0;
#X connect 12 2 17 0;
#X connect 13 0 19 0;
#X connect 14 0 19 0;
#X connect 15 0 20 0;
#X connect 16 0 20 0;
#X connect 17 0 21 0;
#X connect 18 0 21 0;
#X connect 19 0 22 1;
#X connect 20 0 23 1;
#X connect 21 0 24 1;
#X connect 22 1 36 0;
#X connect 23 1 36 0;
#X connect 24 1 36 0;
#X connect 25 0 26 0;
#X connect 26 0 0 0;
#X connect 26 0 3 0;
#X connect 26 0 6 0;
#X connect 27 0 25 0;
#X connect 28 0 29 1;
#X connect 28 0 38 0;
#X connect 29 0 27 0;
#X connect 30 0 4 0;
#X connect 31 0 29 0;
#X connect 35 0 0 1;
#X connect 35 0 3 1;
#X connect 35 0 6 1;
#X connect 37 0 25 1;
