#N canvas 0 22 986 656 10;
#X obj 287 129 inlet;
#X obj 287 154 sel 0 1 2 3 4 5 6 7 8 9 10 11;
#X obj 287 223 expr $f1+$f2;
#X msg 287 184 0;
#X msg 366 184 0.0391;
#X msg 415 184 0.1564;
#X msg 464 184 -0.1369;
#X msg 519 184 -0.0196;
#X msg 574 184 -0.1749;
#X msg 629 184 0.0196;
#X msg 678 184 0.1369;
#X msg 727 184 -0.1564;
#X msg 782 184 -0.0394;
#X msg 837 184 -0.1173;
#X floatatom 287 244 5 0 0 0 - - -, f 5;
#X obj 222 129 inlet;
#X text 204 110 MIDI pitch;
#X text 285 111 Interval with chord fundamental;
#X obj 287 264 outlet;
#X msg 318 184 0.1173;
#X connect 0 0 1 0;
#X connect 1 0 3 0;
#X connect 1 1 19 0;
#X connect 1 2 4 0;
#X connect 1 3 5 0;
#X connect 1 4 6 0;
#X connect 1 5 7 0;
#X connect 1 6 8 0;
#X connect 1 7 9 0;
#X connect 1 8 10 0;
#X connect 1 9 11 0;
#X connect 1 10 12 0;
#X connect 1 11 13 0;
#X connect 2 0 14 0;
#X connect 3 0 2 1;
#X connect 4 0 2 1;
#X connect 5 0 2 1;
#X connect 6 0 2 1;
#X connect 7 0 2 1;
#X connect 8 0 2 1;
#X connect 9 0 2 1;
#X connect 10 0 2 1;
#X connect 11 0 2 1;
#X connect 12 0 2 1;
#X connect 13 0 2 1;
#X connect 14 0 18 0;
#X connect 15 0 2 0;
#X connect 19 0 2 1;
