#N canvas 0 22 1160 658 10;
#X obj 412 27 sel 0 12 24 36 48 60 72 84 96 108 120;
#X obj 412 50 bng 15 250 50 0 empty empty empty 17 7 0 10 -262144 -1
-1;
#X obj 412 100 bng 15 250 50 0 empty empty empty 17 7 0 10 -262144
-1 -1;
#X obj 412 78 sel 1 13 25 37 49 61 73 85 97 109 121;
#X obj 412 150 bng 15 250 50 0 empty empty empty 17 7 0 10 -262144
-1 -1;
#X obj 412 128 sel 2 14 26 38 50 62 74 86 98 110 122;
#X obj 412 200 bng 15 250 50 0 empty empty empty 17 7 0 10 -262144
-1 -1;
#X obj 412 178 sel 3 15 27 39 51 63 75 87 99 111 123;
#X obj 412 250 bng 15 250 50 0 empty empty empty 17 7 0 10 -262144
-1 -1;
#X obj 412 228 sel 4 16 28 40 52 64 76 88 100 112 124;
#X obj 412 300 bng 15 250 50 0 empty empty empty 17 7 0 10 -262144
-1 -1;
#X obj 412 278 sel 5 17 29 41 53 65 77 89 101 113 125;
#X obj 412 350 bng 15 250 50 0 empty empty empty 17 7 0 10 -262144
-1 -1;
#X obj 412 328 sel 6 18 30 42 54 66 78 90 102 114 126;
#X obj 412 400 bng 15 250 50 0 empty empty empty 17 7 0 10 -262144
-1 -1;
#X obj 412 378 sel 7 19 31 43 55 67 79 91 103 115 127;
#X obj 412 450 bng 15 250 50 0 empty empty empty 17 7 0 10 -262144
-1 -1;
#X obj 412 428 sel 8 20 32 44 56 68 80 92 104 116;
#X obj 412 500 bng 15 250 50 0 empty empty empty 17 7 0 10 -262144
-1 -1;
#X obj 412 478 sel 9 21 33 45 57 69 81 93 105 117;
#X obj 412 550 bng 15 250 50 0 empty empty empty 17 7 0 10 -262144
-1 -1;
#X obj 412 528 sel 10 22 34 46 58 70 82 94 106 118;
#X obj 412 600 bng 15 250 50 0 empty empty empty 17 7 0 10 -262144
-1 -1;
#X obj 412 578 sel 11 23 35 47 59 71 83 95 107 119;
#X obj 354 11 inlet;
#X msg 635 53 0;
#X msg 635 103 1;
#X msg 635 153 2;
#X msg 635 203 3;
#X msg 635 253 4;
#X msg 635 303 5;
#X msg 635 353 6;
#X msg 635 403 7;
#X msg 635 453 8;
#X msg 635 503 9;
#X msg 635 553 10;
#X msg 635 603 11;
#X obj 697 619 outlet;
#X connect 0 0 1 0;
#X connect 0 1 1 0;
#X connect 0 2 1 0;
#X connect 0 3 1 0;
#X connect 0 4 1 0;
#X connect 0 5 1 0;
#X connect 0 6 1 0;
#X connect 0 7 1 0;
#X connect 0 8 1 0;
#X connect 0 9 1 0;
#X connect 0 10 1 0;
#X connect 1 0 25 0;
#X connect 2 0 26 0;
#X connect 3 0 2 0;
#X connect 3 1 2 0;
#X connect 3 2 2 0;
#X connect 3 3 2 0;
#X connect 3 4 2 0;
#X connect 3 5 2 0;
#X connect 3 6 2 0;
#X connect 3 7 2 0;
#X connect 3 8 2 0;
#X connect 3 9 2 0;
#X connect 3 10 2 0;
#X connect 4 0 27 0;
#X connect 5 0 4 0;
#X connect 5 1 4 0;
#X connect 5 2 4 0;
#X connect 5 3 4 0;
#X connect 5 4 4 0;
#X connect 5 5 4 0;
#X connect 5 6 4 0;
#X connect 5 7 4 0;
#X connect 5 8 4 0;
#X connect 5 9 4 0;
#X connect 5 10 4 0;
#X connect 6 0 28 0;
#X connect 7 0 6 0;
#X connect 7 1 6 0;
#X connect 7 2 6 0;
#X connect 7 3 6 0;
#X connect 7 4 6 0;
#X connect 7 5 6 0;
#X connect 7 6 6 0;
#X connect 7 7 6 0;
#X connect 7 8 6 0;
#X connect 7 9 6 0;
#X connect 7 10 6 0;
#X connect 8 0 29 0;
#X connect 9 0 8 0;
#X connect 9 1 8 0;
#X connect 9 2 8 0;
#X connect 9 3 8 0;
#X connect 9 4 8 0;
#X connect 9 5 8 0;
#X connect 9 6 8 0;
#X connect 9 7 8 0;
#X connect 9 8 8 0;
#X connect 9 9 8 0;
#X connect 9 10 8 0;
#X connect 10 0 30 0;
#X connect 11 0 10 0;
#X connect 11 1 10 0;
#X connect 11 2 10 0;
#X connect 11 3 10 0;
#X connect 11 4 10 0;
#X connect 11 5 10 0;
#X connect 11 6 10 0;
#X connect 11 7 10 0;
#X connect 11 8 10 0;
#X connect 11 9 10 0;
#X connect 11 10 10 0;
#X connect 12 0 31 0;
#X connect 13 0 12 0;
#X connect 13 1 12 0;
#X connect 13 2 12 0;
#X connect 13 3 12 0;
#X connect 13 4 12 0;
#X connect 13 5 12 0;
#X connect 13 6 12 0;
#X connect 13 7 12 0;
#X connect 13 8 12 0;
#X connect 13 9 12 0;
#X connect 13 10 12 0;
#X connect 14 0 32 0;
#X connect 15 0 14 0;
#X connect 15 1 14 0;
#X connect 15 2 14 0;
#X connect 15 3 14 0;
#X connect 15 4 14 0;
#X connect 15 5 14 0;
#X connect 15 6 14 0;
#X connect 15 7 14 0;
#X connect 15 8 14 0;
#X connect 15 9 14 0;
#X connect 15 10 14 0;
#X connect 16 0 33 0;
#X connect 17 0 16 0;
#X connect 17 1 16 0;
#X connect 17 2 16 0;
#X connect 17 3 16 0;
#X connect 17 4 16 0;
#X connect 17 5 16 0;
#X connect 17 6 16 0;
#X connect 17 7 16 0;
#X connect 17 8 16 0;
#X connect 17 9 16 0;
#X connect 18 0 34 0;
#X connect 19 0 18 0;
#X connect 19 1 18 0;
#X connect 19 2 18 0;
#X connect 19 3 18 0;
#X connect 19 4 18 0;
#X connect 19 5 18 0;
#X connect 19 6 18 0;
#X connect 19 7 18 0;
#X connect 19 8 18 0;
#X connect 19 9 18 0;
#X connect 20 0 35 0;
#X connect 21 0 20 0;
#X connect 21 1 20 0;
#X connect 21 2 20 0;
#X connect 21 3 20 0;
#X connect 21 4 20 0;
#X connect 21 5 20 0;
#X connect 21 6 20 0;
#X connect 21 7 20 0;
#X connect 21 8 20 0;
#X connect 21 9 20 0;
#X connect 22 0 36 0;
#X connect 23 0 22 0;
#X connect 23 1 22 0;
#X connect 23 2 22 0;
#X connect 23 3 22 0;
#X connect 23 4 22 0;
#X connect 23 5 22 0;
#X connect 23 6 22 0;
#X connect 23 7 22 0;
#X connect 23 8 22 0;
#X connect 23 9 22 0;
#X connect 24 0 0 0;
#X connect 24 0 3 0;
#X connect 24 0 7 0;
#X connect 24 0 9 0;
#X connect 24 0 11 0;
#X connect 24 0 13 0;
#X connect 24 0 15 0;
#X connect 24 0 17 0;
#X connect 24 0 19 0;
#X connect 24 0 21 0;
#X connect 24 0 23 0;
#X connect 25 0 37 0;
#X connect 26 0 37 0;
#X connect 27 0 37 0;
#X connect 28 0 37 0;
#X connect 29 0 37 0;
#X connect 30 0 37 0;
#X connect 31 0 37 0;
#X connect 32 0 37 0;
#X connect 33 0 37 0;
#X connect 34 0 37 0;
#X connect 35 0 37 0;
#X connect 36 0 37 0;
