#N canvas -8 -8 1366 685 12;
#X obj 913 70 notein;
#X obj 177 140 hradio 30 1 0 3 empty empty INST 0 -8 0 10 -261682 -1
-1 0;
#X obj 377 123 s instoggle;
#X obj 252 537 spigot;
#X obj 370 536 spigot;
#X obj 785 124 tgl 15 0 empty empty empty 17 7 0 10 -262144 -1 -1 0
1;
#X obj 737 121 tgl 15 0 empty empty empty 17 7 0 10 -262144 -1 -1 1
1;
#X msg 737 54 1;
#X msg 718 93 0;
#X msg 784 54 1;
#X msg 765 93 0;
#X obj 737 4 r instoggle;
#X obj 307 537 spigot;
#X obj 420 535 spigot;
#X obj 1115 101 tgl 15 0 empty empty empty 17 7 0 10 -262144 -1 -1
0 1;
#X obj 1067 101 tgl 15 0 empty empty empty 17 7 0 10 -262144 -1 -1
1 1;
#X msg 1068 54 1;
#X msg 1068 73 0;
#X msg 1115 54 1;
#X msg 1115 73 0;
#X obj 1068 -6 r instoggle;
#X obj 377 53 loadbang;
#X msg 377 74 0;
#X obj 127 194 hradio 25 1 0 2 empty empty LFO_ADSR 0 -8 0 10 -204786
-1 -1 0;
#X obj 400 193 s lfoadsr;
#X obj 193 194 hradio 25 1 0 2 empty empty BP__LOP 0 -8 0 10 -232576
-1 -1 1;
#X obj 466 193 s bplop;
#X obj 256 194 hradio 25 1 0 3 empty empty Wave 0 -8 0 10 -204786 -1
-1 1;
#X obj 529 192 s waveform;
#X obj 752 153 loadbang;
#X obj 739 514 hsl 60 10 0 5 0 0 empty empty empty -2 -8 0 10 -203904
-1 -1 708 1;
#X floatatom 736 531 5 0 0 0 - - -;
#X obj 736 613 s gain;
#X obj 700 457 sel 0 1 2;
#X obj 702 435 r waveform;
#X obj 736 586 -;
#X obj 736 558 f;
#X floatatom 804 600 5 0 0 0 - - -;
#X obj 808 513 sel 1;
#X msg 808 537 0;
#X obj 679 541 del 30;
#X msg 671 493 0.9;
#X msg 736 492 1;
#X msg 752 175 0;
#X obj 251 578 outlet;
#X obj 301 578 outlet;
#X obj 371 578 outlet;
#X obj 421 578 outlet;
#X obj 490 536 spigot;
#X obj 825 124 tgl 15 0 empty empty empty 17 7 0 10 -262144 -1 -1 0
1;
#X msg 824 54 1;
#X msg 805 93 0;
#X obj 491 578 outlet;
#X obj 540 536 spigot;
#X obj 1151 104 tgl 15 0 empty empty empty 17 7 0 10 -262144 -1 -1
0 1;
#X msg 1151 54 1;
#X msg 1151 73 0;
#X obj 541 578 outlet;
#X obj 737 24 sel 0 1 2;
#X obj 1068 14 sel 0 1 2;
#X floatatom 926 112 5 0 0 0 - - -;
#X floatatom 896 173 5 0 0 0 - - -;
#X msg 421 83 1;
#X obj 943 408 switch 3 1;
#X obj 943 385 + 1;
#X obj 1023 408 switch 3 1;
#X obj 1023 385 + 1;
#X obj 1103 408 switch 3 1;
#X obj 1103 385 + 1;
#X msg 707 493 0.6;
#X connect 0 0 3 0;
#X connect 0 0 4 0;
#X connect 0 0 48 0;
#X connect 0 0 61 0;
#X connect 0 1 12 0;
#X connect 0 1 13 0;
#X connect 0 1 53 0;
#X connect 0 1 60 0;
#X connect 1 0 2 0;
#X connect 1 0 64 0;
#X connect 3 0 44 0;
#X connect 4 0 46 0;
#X connect 5 0 4 1;
#X connect 6 0 3 1;
#X connect 7 0 6 0;
#X connect 8 0 6 0;
#X connect 9 0 5 0;
#X connect 10 0 5 0;
#X connect 11 0 58 0;
#X connect 12 0 45 0;
#X connect 13 0 47 0;
#X connect 14 0 13 1;
#X connect 15 0 12 1;
#X connect 16 0 15 0;
#X connect 17 0 15 0;
#X connect 18 0 14 0;
#X connect 19 0 14 0;
#X connect 20 0 59 0;
#X connect 21 0 22 0;
#X connect 21 0 62 0;
#X connect 22 0 1 0;
#X connect 23 0 24 0;
#X connect 25 0 26 0;
#X connect 25 0 38 0;
#X connect 25 0 40 0;
#X connect 27 0 28 0;
#X connect 27 0 40 0;
#X connect 29 0 43 0;
#X connect 30 0 31 0;
#X connect 31 0 36 1;
#X connect 31 0 32 0;
#X connect 33 0 41 0;
#X connect 33 1 69 0;
#X connect 33 2 42 0;
#X connect 34 0 33 0;
#X connect 35 0 32 0;
#X connect 35 0 37 0;
#X connect 36 0 35 0;
#X connect 38 0 39 0;
#X connect 39 0 35 1;
#X connect 40 0 36 0;
#X connect 41 0 30 0;
#X connect 42 0 30 0;
#X connect 43 0 28 0;
#X connect 48 0 52 0;
#X connect 49 0 48 1;
#X connect 50 0 49 0;
#X connect 51 0 49 0;
#X connect 53 0 57 0;
#X connect 54 0 53 1;
#X connect 55 0 54 0;
#X connect 56 0 54 0;
#X connect 58 0 7 0;
#X connect 58 0 10 0;
#X connect 58 0 51 0;
#X connect 58 1 8 0;
#X connect 58 1 9 0;
#X connect 58 1 51 0;
#X connect 58 2 8 0;
#X connect 58 2 10 0;
#X connect 58 2 50 0;
#X connect 59 0 16 0;
#X connect 59 0 19 0;
#X connect 59 0 56 0;
#X connect 59 1 17 0;
#X connect 59 1 18 0;
#X connect 59 1 56 0;
#X connect 59 2 17 0;
#X connect 59 2 19 0;
#X connect 59 2 55 0;
#X connect 62 0 25 0;
#X connect 64 0 63 0;
#X connect 66 0 65 0;
#X connect 68 0 67 0;
#X connect 69 0 30 0;
#X coords 0 -1 1 1 245 130 1 100 100;
