#N canvas -8 -8 1366 685 12;
#X obj 157 172 vsl 15 125 0 1 0 0 empty empty A 0 -9 0 10 -204800 -1
-1 0 1;
#X obj 231 172 vsl 15 125 0 1 0 0 empty empty %A 0 -9 0 10 -204786
-1 -1 0 1;
#X floatatom 187 220 5 0 0 2 tA - -;
#X floatatom 258 166 5 0 0 2 tD - -;
#X floatatom 258 276 5 0 0 2 tR - -;
#X obj 23 635 t f b;
#X obj 63 635 t f b;
#X obj 103 635 t f b;
#X obj 143 635 t f b;
#X obj 143 655 t f b;
#X obj 23 732 outlet;
#X obj 20 532 inlet;
#X obj 20 553 unpack f f f f f f;
#X floatatom 258 220 5 0 0 2 tS - -;
#X obj 23 689 pack f f f f f f;
#X obj 180 635 t f b;
#X obj 189 603 s adsrfilt;
#X obj 186 519 loadbang;
#X msg 186 544 1 80 0.35 250 500 350;
#X text 155 135 Filter Envelope;
#X obj 338 174 vsl 15 125 0 1 0 0 empty empty A 0 -9 0 10 -215680 -1
-1 0 1;
#X obj 412 174 vsl 15 125 0 1 0 0 empty empty %A 0 -9 0 10 -261794
-1 -1 0 1;
#X floatatom 368 219 5 0 0 2 tA - -;
#X floatatom 439 188 5 0 0 2 tD - -;
#X floatatom 439 258 5 0 0 2 tR - -;
#X obj 557 275 pack f f f f f;
#X obj 557 221 t f b;
#X obj 597 221 t f b;
#X obj 637 221 t f b;
#X obj 677 221 t f b;
#X obj 677 241 t f b;
#X obj 557 29 inlet;
#X obj 557 50 unpack f f f f f;
#X obj 557 318 outlet;
#X text 335 135 Vol Envelope;
#X obj 773 316 s noise_env;
#X obj 725 8 loadbang;
#X obj 725 335 s phasor_env;
#X obj 759 217 sel 0 1;
#X obj 725 295 spigot;
#X obj 773 295 spigot;
#X obj 806 274 tgl 15 0 empty empty empty 17 7 0 10 -262144 -1 -1 0
1;
#X obj 758 274 tgl 15 0 empty empty empty 17 7 0 10 -262144 -1 -1 0
1;
#X msg 759 237 1;
#X msg 759 256 0;
#X msg 806 237 1;
#X msg 806 256 0;
#X obj 759 197 r instoggle;
#X msg 725 49 1 50 0.4 50 60;
#X obj 725 371 s adsramp;
#X obj 739 29 del 100;
#X obj 140 334 hsl 150 15 0 1 0 0 empty empty empty -2 -8 0 10 -188411
-1 -1 0 1;
#X floatatom 137 354 5 0 0 0 - - -;
#X obj 150 374 hsl 150 15 0 1 0 0 empty empty empty -2 -8 0 10 -167923
-1 -1 0 1;
#X floatatom 147 394 5 0 0 0 - - -;
#X obj 160 414 hsl 150 15 0 1 0 0 empty empty empty -2 -8 0 10 -159719
-1 -1 0 1;
#X floatatom 157 434 5 0 0 0 - - -;
#X obj 313 334 hsl 150 15 0 1 0 0 empty empty empty -2 -8 0 10 -180198
-1 -1 0 1;
#X floatatom 310 354 5 0 0 0 - - -;
#X obj 323 374 hsl 150 15 0 1 0 0 empty empty empty -2 -8 0 10 -212964
-1 -1 0 1;
#X floatatom 320 394 5 0 0 0 - - -;
#X obj 333 414 hsl 150 15 0 1 0 0 empty empty empty -2 -8 0 10 -233441
-1 -1 0 1;
#X floatatom 330 434 5 0 0 0 - - -;
#X obj 359 608 pack f f f f f f;
#X obj 359 522 t b f;
#X obj 369 542 t b f;
#X obj 379 562 t b f;
#X obj 449 522 t b f;
#X obj 459 542 t b f;
#X obj 469 562 t b f;
#X obj 359 629 outlet;
#X obj 573 475 inlet;
#X obj 573 496 unpack f f f f f f;
#X text 136 307 Polypan;
#X obj 575 620 s noise_pan;
#X obj 575 419 loadbang;
#X msg 575 440 0 0.25 0.45 0.55 0.75 1;
#X msg 560 647 0.5 0.5 0.5 0.5 0.5 0.5;
#X msg 634 418 0.2 0.4 0.5 0.5 0.6 0.8;
#X connect 0 0 5 0;
#X connect 1 0 7 0;
#X connect 2 0 6 0;
#X connect 3 0 8 0;
#X connect 4 0 9 0;
#X connect 5 0 14 0;
#X connect 5 1 14 0;
#X connect 6 0 14 1;
#X connect 6 1 14 0;
#X connect 7 0 14 2;
#X connect 7 1 14 0;
#X connect 8 0 14 3;
#X connect 8 1 14 0;
#X connect 9 0 14 5;
#X connect 9 1 14 0;
#X connect 11 0 12 0;
#X connect 12 0 0 0;
#X connect 12 1 2 0;
#X connect 12 2 1 0;
#X connect 12 3 3 0;
#X connect 12 4 13 0;
#X connect 12 5 4 0;
#X connect 13 0 15 0;
#X connect 14 0 10 0;
#X connect 14 0 16 0;
#X connect 15 0 14 4;
#X connect 15 1 14 0;
#X connect 17 0 18 0;
#X connect 18 0 12 0;
#X connect 20 0 26 0;
#X connect 21 0 28 0;
#X connect 22 0 27 0;
#X connect 23 0 29 0;
#X connect 24 0 30 0;
#X connect 25 0 33 0;
#X connect 25 0 39 0;
#X connect 25 0 40 0;
#X connect 26 0 25 0;
#X connect 26 1 25 0;
#X connect 27 0 25 1;
#X connect 27 1 25 0;
#X connect 28 0 25 2;
#X connect 28 1 25 0;
#X connect 29 0 25 3;
#X connect 29 1 25 0;
#X connect 30 0 25 4;
#X connect 30 1 25 0;
#X connect 31 0 32 0;
#X connect 32 0 20 0;
#X connect 32 1 22 0;
#X connect 32 2 21 0;
#X connect 32 3 23 0;
#X connect 32 4 24 0;
#X connect 36 0 50 0;
#X connect 38 0 43 0;
#X connect 38 0 46 0;
#X connect 38 1 44 0;
#X connect 38 1 45 0;
#X connect 38 2 44 0;
#X connect 38 2 46 0;
#X connect 39 0 37 0;
#X connect 39 0 49 0;
#X connect 40 0 35 0;
#X connect 41 0 40 1;
#X connect 42 0 39 1;
#X connect 43 0 42 0;
#X connect 44 0 42 0;
#X connect 45 0 41 0;
#X connect 46 0 41 0;
#X connect 47 0 38 0;
#X connect 48 0 32 0;
#X connect 50 0 48 0;
#X connect 51 0 52 0;
#X connect 52 0 64 0;
#X connect 53 0 54 0;
#X connect 54 0 65 0;
#X connect 55 0 56 0;
#X connect 56 0 66 0;
#X connect 57 0 58 0;
#X connect 58 0 67 0;
#X connect 59 0 60 0;
#X connect 60 0 68 0;
#X connect 61 0 62 0;
#X connect 62 0 69 0;
#X connect 63 0 70 0;
#X connect 63 0 74 0;
#X connect 64 0 63 0;
#X connect 64 1 63 0;
#X connect 65 0 63 0;
#X connect 65 1 63 1;
#X connect 66 0 63 0;
#X connect 66 1 63 2;
#X connect 67 0 63 0;
#X connect 67 1 63 3;
#X connect 68 0 63 0;
#X connect 68 1 63 4;
#X connect 69 0 63 0;
#X connect 69 1 63 5;
#X connect 71 0 72 0;
#X connect 72 0 51 0;
#X connect 72 1 53 0;
#X connect 72 2 55 0;
#X connect 72 3 57 0;
#X connect 72 4 59 0;
#X connect 72 5 61 0;
#X connect 75 0 76 0;
#X connect 76 0 72 0;
#X coords 0 -1 1 1 410 380 1 100 100;
