#N canvas 0 22 1280 688 10;
#X obj 263 193 phasor~;
#X obj 326 193 phasor~;
#X msg 383 154 0;
#X obj 383 129 loadbang;
#X obj 263 217 *~ 2;
#X obj 326 217 *~ 2;
#X obj 263 242 -~ 1;
#X obj 326 242 -~ 1;
#X obj 263 268 clip~ 0 1;
#X obj 326 268 clip~ 0 1;
#X obj 301 297 +~;
#X obj 214 359 *~ 0.7;
#X obj 214 396 *~;
#X obj 214 434 outlet~;
#X obj 285 101 inlet~;
#X obj 310 155 *~ -1;
#X msg 240 398 1;
#X obj 507 80 inlet;
#X connect 0 0 4 0;
#X connect 1 0 5 0;
#X connect 2 0 1 1;
#X connect 2 0 0 1;
#X connect 3 0 2 0;
#X connect 3 0 16 0;
#X connect 4 0 6 0;
#X connect 5 0 7 0;
#X connect 6 0 8 0;
#X connect 7 0 9 0;
#X connect 8 0 10 0;
#X connect 9 0 10 1;
#X connect 10 0 11 0;
#X connect 11 0 12 0;
#X connect 12 0 13 0;
#X connect 14 0 0 0;
#X connect 14 0 15 0;
#X connect 15 0 1 0;
#X connect 16 0 12 1;
#X connect 17 0 1 1;
#X connect 17 0 0 1;
