#N canvas -8 -8 1366 685 10;
#X obj 596 113 mtof;
#X obj 596 59 stripnote;
#X obj 424 388 *~;
#X obj 454 388 *~;
#X floatatom 521 140 5 0 0 0 - - -;
#X obj 596 135 bng 15 250 50 0 empty empty empty 17 7 0 10 -262144
-1 -1;
#X obj 423 480 vcf~;
#X obj 453 480 vcf~;
#X obj 1062 465 spigot~;
#X obj 1134 261 osc~;
#X obj 1134 238 r lfofreq;
#X obj 1114 465 spigot~;
#X obj 1101 417 r lfoadsr;
#X obj 1101 440 tgl 15 0 empty empty empty 17 7 0 10 -262144 -1 -1
1 1;
#X obj 1135 286 +~ 1;
#X obj 1134 313 /~ 2;
#X obj 1134 342 *~;
#X obj 1133 371 +~;
#X obj 1186 415 r lfowidth;
#X obj 1187 444 r lfomin;
#X obj 512 417 loadbang;
#X msg 512 438 0.5;
#X obj 570 417 r filtq;
#X obj 423 515 spigot~;
#X obj 475 515 spigot~;
#X obj 547 500 tgl 15 0 empty empty empty 17 7 0 10 -262144 -1 -1 1
1;
#X obj 423 541 spigot~;
#X obj 475 541 spigot~;
#X obj 423 595 *~;
#X obj 589 554 loadbang;
#X msg 588 579 1;
#X obj 453 595 *~;
#X obj 620 579 r gain;
#X obj 415 647 outlet~;
#X obj 471 647 outlet~;
#X obj 596 10 inlet;
#X obj 596 33 unpack 0 0;
#X obj 596 89 j_int2;
#X floatatom 457 31 5 0 0 0 - chordset1 -;
#X floatatom 630 114 5 0 0 0 - - -;
#X obj 583 459 r bplop;
#X obj 583 483 sel 0 1;
#X msg 663 501 0;
#X msg 695 502 1;
#X obj 485 480 moog~;
#X obj 524 480 moog~;
#X obj 776 512 r multatk;
#X obj 743 538 spigot;
#X msg 785 563 1;
#X obj 743 561 osc~;
#X obj 743 586 *~;
#X obj 703 610 +~ 1;
#X obj 703 631 /~ 2;
#X obj 468 624 *~;
#X obj 413 624 *~;
#X obj 743 491 r atk_freq;
#X obj 796 538 sel 0 1;
#X msg 827 563 0;
#X msg 744 628 1;
#X obj 850 540 sel 0;
#X floatatom 677 62 5 0 0 0 - - -;
#X floatatom 724 63 5 0 0 0 - - -;
#X obj 596 159 libDetune;
#X obj 647 180 s phaseCorr;
#X obj 452 175 r phaseCorr;
#X obj 364 256 libVersatileBranch;
#X obj 596 256 libVersatileBranch;
#X floatatom 533 175 5 0 0 0 - - -;
#X obj 480 256 libVersatileBranch;
#X obj 714 257 libEnvContainer;
#X obj 981 160 libVibratoInput;
#X connect 0 0 5 0;
#X connect 1 0 37 0;
#X connect 1 1 69 1;
#X connect 2 0 6 0;
#X connect 2 0 44 0;
#X connect 3 0 7 0;
#X connect 3 0 45 0;
#X connect 4 0 69 2;
#X connect 5 0 62 0;
#X connect 5 0 69 0;
#X connect 6 0 23 0;
#X connect 7 0 26 0;
#X connect 8 1 6 1;
#X connect 8 1 7 1;
#X connect 8 1 44 1;
#X connect 9 0 14 0;
#X connect 10 0 9 0;
#X connect 11 0 6 1;
#X connect 11 0 7 1;
#X connect 11 0 45 1;
#X connect 12 0 13 0;
#X connect 13 0 8 1;
#X connect 13 0 11 1;
#X connect 14 0 15 0;
#X connect 15 0 16 0;
#X connect 16 0 17 0;
#X connect 17 0 11 0;
#X connect 18 0 16 1;
#X connect 19 0 17 1;
#X connect 20 0 21 0;
#X connect 21 0 6 2;
#X connect 21 0 7 2;
#X connect 21 0 44 2;
#X connect 21 0 45 2;
#X connect 22 0 7 2;
#X connect 22 0 6 2;
#X connect 22 0 44 2;
#X connect 22 0 45 2;
#X connect 23 0 28 0;
#X connect 24 1 28 0;
#X connect 25 0 23 1;
#X connect 25 0 24 1;
#X connect 25 0 26 1;
#X connect 25 0 27 1;
#X connect 26 0 31 0;
#X connect 27 1 31 0;
#X connect 28 0 54 0;
#X connect 29 0 30 0;
#X connect 30 0 28 1;
#X connect 30 0 31 1;
#X connect 31 0 53 0;
#X connect 32 0 28 1;
#X connect 32 0 31 1;
#X connect 35 0 36 0;
#X connect 36 0 1 0;
#X connect 36 0 60 0;
#X connect 36 1 4 0;
#X connect 36 1 1 1;
#X connect 36 1 61 0;
#X connect 37 0 39 0;
#X connect 37 0 0 0;
#X connect 37 0 62 1;
#X connect 38 0 37 1;
#X connect 40 0 41 0;
#X connect 41 0 42 0;
#X connect 41 1 43 0;
#X connect 42 0 25 0;
#X connect 43 0 25 0;
#X connect 44 0 24 0;
#X connect 45 0 27 0;
#X connect 46 0 47 1;
#X connect 46 0 56 0;
#X connect 47 0 49 0;
#X connect 48 0 50 1;
#X connect 49 0 50 0;
#X connect 50 0 51 0;
#X connect 51 0 52 0;
#X connect 52 0 53 1;
#X connect 52 0 54 1;
#X connect 53 0 34 0;
#X connect 54 0 33 0;
#X connect 55 0 47 0;
#X connect 55 0 59 0;
#X connect 56 0 57 0;
#X connect 56 0 58 0;
#X connect 56 1 48 0;
#X connect 57 0 49 0;
#X connect 57 0 50 1;
#X connect 58 0 53 1;
#X connect 58 0 54 1;
#X connect 59 0 58 0;
#X connect 62 0 65 0;
#X connect 62 0 67 0;
#X connect 62 1 68 0;
#X connect 62 2 66 0;
#X connect 62 3 63 0;
#X connect 64 0 65 2;
#X connect 64 0 66 2;
#X connect 64 0 68 2;
#X connect 65 0 2 0;
#X connect 66 0 3 0;
#X connect 68 0 2 0;
#X connect 68 0 3 0;
#X connect 69 0 2 1;
#X connect 69 0 3 1;
#X connect 69 1 8 0;
#X connect 70 0 66 1;
#X connect 70 0 68 1;
#X connect 70 0 65 1;
