#N canvas 0 22 986 656 10;
#X obj 275 129 inlet;
#X obj 287 153 sel 0 1 2 3 4 5 6 7 8 9 10 11;
#X floatatom 237 334 5 0 0 0 - - -;
#X obj 222 129 inlet;
#X text 204 110 MIDI pitch;
#X text 285 111 Interval with chord fundamental;
#X obj 237 354 outlet;
#X msg 490 142 0 0.1173 0.0391 0.1564 -0.1369 -0.0196 -0.1749 0.0196
0.1369 -0.1564 -0.0394 -0.1173;
#X floatatom 287 198 10 0 0 0 - - -;
#X floatatom 303 218 10 0 0 0 - - -;
#X floatatom 319 238 10 0 0 0 - - -;
#X floatatom 335 258 10 0 0 0 - - -;
#X floatatom 351 278 10 0 0 0 - - -;
#X floatatom 367 298 10 0 0 0 - - -;
#X floatatom 383 198 10 0 0 0 - - -;
#X floatatom 399 218 10 0 0 0 - - -;
#X floatatom 415 238 10 0 0 0 - - -;
#X floatatom 431 258 10 0 0 0 - - -;
#X floatatom 447 278 10 0 0 0 - - -;
#X obj 287 174 unpack f f f f f f f f f f f f;
#X floatatom 464 298 10 0 0 0 - - -;
#X obj 287 58 r custom1;
#X obj 287 79 unpack f f f f f f f f f f f f;
#X obj 490 89 r defaulttemp1;
#X obj 237 313 expr $f1+$f2;
#X connect 0 0 1 0;
#X connect 1 0 8 0;
#X connect 1 1 9 0;
#X connect 1 2 10 0;
#X connect 1 3 11 0;
#X connect 1 4 12 0;
#X connect 1 5 13 0;
#X connect 1 6 14 0;
#X connect 1 7 15 0;
#X connect 1 8 16 0;
#X connect 1 9 17 0;
#X connect 1 10 18 0;
#X connect 1 11 20 0;
#X connect 2 0 6 0;
#X connect 3 0 24 0;
#X connect 7 0 19 0;
#X connect 8 0 24 1;
#X connect 9 0 24 1;
#X connect 10 0 24 1;
#X connect 11 0 24 1;
#X connect 12 0 24 1;
#X connect 13 0 24 1;
#X connect 14 0 24 1;
#X connect 15 0 24 1;
#X connect 16 0 24 1;
#X connect 17 0 24 1;
#X connect 18 0 24 1;
#X connect 19 0 8 0;
#X connect 19 1 9 0;
#X connect 19 2 10 0;
#X connect 19 3 11 0;
#X connect 19 4 12 0;
#X connect 19 5 13 0;
#X connect 19 6 14 0;
#X connect 19 7 15 0;
#X connect 19 8 16 0;
#X connect 19 9 17 0;
#X connect 19 10 18 0;
#X connect 19 11 20 0;
#X connect 20 0 24 1;
#X connect 21 0 22 0;
#X connect 22 0 8 0;
#X connect 22 1 9 0;
#X connect 22 2 10 0;
#X connect 22 3 11 0;
#X connect 22 4 12 0;
#X connect 22 5 13 0;
#X connect 22 6 14 0;
#X connect 22 7 15 0;
#X connect 22 8 16 0;
#X connect 22 9 17 0;
#X connect 22 10 18 0;
#X connect 22 11 20 0;
#X connect 23 0 7 0;
#X connect 24 0 2 0;
