#N canvas -8 -8 1366 685 10;
#X obj 131 239 hsl 200 15 -1 1 0 0 empty empty 0 -17 7 0 10 -262124
-1 -1 9950 1;
#X obj 141 281 hsl 200 15 -1 1 0 0 empty empty 1 -17 7 0 10 -261538
-1 -1 11117 1;
#X obj 151 323 hsl 200 15 -1 1 0 0 empty empty 2 -17 7 0 10 -260832
-1 -1 10339 1;
#X obj 161 365 hsl 200 15 -1 1 0 0 empty empty 3 -17 7 0 10 -259870
-1 -1 11506 1;
#X obj 171 407 hsl 200 15 -1 1 0 0 empty empty 4 -17 7 0 10 -259876
-1 -1 8588 1;
#X obj 181 449 hsl 200 15 -1 1 0 0 empty empty 5 -17 7 0 10 -259948
-1 -1 9755 1;
#X obj 381 239 hsl 200 15 -1 1 0 0 empty empty 6 -17 7 0 10 -261436
-1 -1 8210 1;
#X obj 391 281 hsl 200 15 -1 1 0 0 empty empty 7 -17 7 0 10 -260927
-1 -1 10145 1;
#X obj 401 323 hsl 200 15 -1 1 0 0 empty empty 8 -17 7 0 10 -228160
-1 -1 11312 1;
#X obj 411 365 hsl 200 15 -1 1 0 0 empty empty 9 -17 7 0 10 -187200
-1 -1 8394 1;
#X obj 421 407 hsl 200 15 -1 1 0 0 empty empty 10 -19 7 0 10 -166975
-1 -1 9558 1;
#X obj 431 449 hsl 200 15 -1 1 0 0 empty empty 11 -19 7 0 10 -159423
-1 -1 8783 1;
#X floatatom 128 259 15 0 0 0 - - -;
#X floatatom 138 301 15 0 0 0 - - -;
#X floatatom 148 343 15 0 0 0 - - -;
#X floatatom 158 385 15 0 0 0 - - -;
#X floatatom 168 427 15 0 0 0 - - -;
#X floatatom 178 469 15 0 0 0 - - -;
#X floatatom 378 259 15 0 0 0 - - -;
#X floatatom 388 301 15 0 0 0 - - -;
#X floatatom 398 343 15 0 0 0 - - -;
#X floatatom 408 385 15 0 0 0 - - -;
#X floatatom 418 427 15 0 0 0 - - -;
#X floatatom 428 469 15 0 0 0 - - -;
#X obj 128 46 inlet;
#X obj 128 67 unpack f f f f f f f f f f f f;
#X obj 618 242 bng 35 250 50 0 empty empty Equal 0 -10 0 10 -249600
-262144 -1;
#X obj 638 302 bng 35 250 50 0 empty empty Just 0 -10 0 10 -261752
-262144 -1;
#X msg 530 40 0 0.1173 0.0391 0.1564 -0.1369 -0.0196 -0.1749 0.0196
0.1369 -0.1564 -0.0394 -0.1173;
#X msg 526 15 0 0 0 0 0 0 0 0 0 0 0 0;
#X obj 374 -1 loadbang;
#X obj 737 164 loadbang;
#X msg 737 185 0;
#X obj 282 138 hsl 300 25 -1 1 0 0 empty empty Global -2 -8 0 10 -262144
-1 -1 14800 1;
#X floatatom 240 138 5 0 0 0 - - -;
#X obj 128 757 outlet;
#X obj 128 736 pack f f f f f f f f f f f f;
#X obj 128 609 t f b;
#X obj 138 629 t f b;
#X obj 148 649 t f b;
#X obj 158 669 t f b;
#X obj 168 689 t f b;
#X obj 178 709 t f b;
#X obj 378 609 t f b;
#X obj 388 629 t f b;
#X obj 398 649 t f b;
#X obj 408 669 t f b;
#X obj 418 689 t f b;
#X obj 428 709 t f b;
#X obj 180 760 s custom1;
#X obj 128 527 libsum;
#X obj 138 547 libsum;
#X obj 148 567 libsum;
#X obj 158 587 libsum;
#X obj 168 607 libsum;
#X obj 178 627 libsum;
#X obj 378 527 libsum;
#X obj 388 547 libsum;
#X obj 398 567 libsum;
#X obj 408 587 libsum;
#X obj 418 607 libsum;
#X obj 428 627 libsum;
#X obj 280 201 hradio 26 1 0 12 empty empty Transpose_to: 0 -24 0 10
-262144 -1 -1 8;
#X obj 505 700 s transposeSet;
#X obj 176 202 hradio 25 1 0 2 empty empty empty 0 -24 0 10 -262144
-1 -1 1;
#X text 167 186 Chord;
#X text 205 186 Key;
#X obj 812 292 s chordKeySwitch;
#X msg 771 186 1;
#X text 288 183 C;
#X text 303 183 C#/Db;
#X text 340 183 D;
#X text 356 183 D#/Eb;
#X text 394 183 E;
#X text 418 183 F;
#X text 433 183 F#/GB;
#X text 470 183 G;
#X text 487 183 G#/Ab;
#X text 523 183 A;
#X text 536 183 A#/Bb;
#X text 575 183 B;
#X connect 0 0 12 0;
#X connect 1 0 13 0;
#X connect 2 0 14 0;
#X connect 3 0 15 0;
#X connect 4 0 16 0;
#X connect 5 0 17 0;
#X connect 6 0 18 0;
#X connect 7 0 19 0;
#X connect 8 0 20 0;
#X connect 9 0 21 0;
#X connect 10 0 22 0;
#X connect 11 0 23 0;
#X connect 12 0 50 0;
#X connect 13 0 51 0;
#X connect 14 0 52 0;
#X connect 15 0 53 0;
#X connect 16 0 54 0;
#X connect 17 0 55 0;
#X connect 18 0 56 0;
#X connect 19 0 57 0;
#X connect 20 0 58 0;
#X connect 21 0 59 0;
#X connect 22 0 60 0;
#X connect 23 0 61 0;
#X connect 24 0 25 0;
#X connect 25 0 0 0;
#X connect 25 1 1 0;
#X connect 25 2 2 0;
#X connect 25 3 3 0;
#X connect 25 4 4 0;
#X connect 25 5 5 0;
#X connect 25 6 6 0;
#X connect 25 7 7 0;
#X connect 25 8 8 0;
#X connect 25 9 9 0;
#X connect 25 10 10 0;
#X connect 25 11 11 0;
#X connect 26 0 29 0;
#X connect 26 0 32 0;
#X connect 27 0 28 0;
#X connect 28 0 25 0;
#X connect 29 0 25 0;
#X connect 30 0 29 0;
#X connect 31 0 32 0;
#X connect 31 0 68 0;
#X connect 32 0 33 0;
#X connect 32 0 62 0;
#X connect 33 0 34 0;
#X connect 34 0 50 1;
#X connect 34 0 61 1;
#X connect 34 0 60 1;
#X connect 34 0 59 1;
#X connect 34 0 58 1;
#X connect 34 0 57 1;
#X connect 34 0 56 1;
#X connect 34 0 55 1;
#X connect 34 0 54 1;
#X connect 34 0 53 1;
#X connect 34 0 52 1;
#X connect 34 0 51 1;
#X connect 36 0 35 0;
#X connect 36 0 49 0;
#X connect 37 0 36 0;
#X connect 37 1 36 0;
#X connect 38 0 36 1;
#X connect 38 1 36 0;
#X connect 39 0 36 2;
#X connect 39 1 36 0;
#X connect 40 0 36 3;
#X connect 40 1 36 0;
#X connect 41 0 36 4;
#X connect 41 1 36 0;
#X connect 42 0 36 5;
#X connect 42 1 36 1;
#X connect 43 0 36 6;
#X connect 43 1 36 0;
#X connect 44 0 36 7;
#X connect 44 1 36 0;
#X connect 45 0 36 8;
#X connect 45 1 36 0;
#X connect 46 0 36 9;
#X connect 46 1 36 0;
#X connect 47 0 36 10;
#X connect 47 1 36 0;
#X connect 48 0 36 11;
#X connect 48 1 36 0;
#X connect 50 0 37 0;
#X connect 51 0 38 0;
#X connect 52 0 39 0;
#X connect 53 0 40 0;
#X connect 54 0 41 0;
#X connect 55 0 42 0;
#X connect 56 0 43 0;
#X connect 57 0 44 0;
#X connect 58 0 45 0;
#X connect 59 0 46 0;
#X connect 60 0 47 0;
#X connect 61 0 48 0;
#X connect 62 0 63 0;
#X connect 64 0 67 0;
#X connect 68 0 64 0;
#X coords -1 -1 1 1 600 400 1 100 100;
