#N canvas 0 22 1280 636 10;
#X obj 491 264 line;
#X text 465 97 Explicación;
#X msg 491 172 1 750;
#X text 531 173 Attack;
#X msg 668 162 0.6 500;
#X text 628 171 Decay;
#X obj 576 145 del 750;
#X obj 491 130 bng 15 250 50 0 empty empty empty 17 7 0 10 -262144
-1 -1;
#X obj 576 222 del 1500;
#X msg 576 247 0 1000;
#X obj 576 198 del 500;
#X obj 491 302 vsl 15 80 0 1 0 0 empty empty empty 0 -9 0 10 -4032
-1 -1 0 1;
#X obj 95 714 line~;
#X obj 95 390 pack f f;
#X floatatom 150 159 5 0 0 0 tA - -, f 5;
#X obj 113 130 vsl 15 40 0 1 0 0 empty empty A 5 -9 0 10 -262130 -1
-1 0 1;
#X obj 95 358 f;
#X obj 125 343 bng 15 250 50 0 empty empty empty 17 7 0 10 -262144
-1 -1;
#X obj 125 454 del;
#X obj 189 131 vsl 15 40 0 1 0 0 empty empty %A 2 -9 0 10 -261682 -1
-1 0 1;
#X obj 302 454 *;
#X text 1636 51 Trigger divide mensajes;
#X obj 1618 71 trigger bang float;
#X text 1736 69 =;
#X obj 1756 72 t b f;
#X text 1598 89 Convierte mensaje en Bang y Variable;
#X obj 349 437 t b f;
#X obj 254 471 f;
#X obj 254 516 pack f f;
#X floatatom 230 125 5 0 0 0 tD - -, f 5;
#X text 326 513 Decay;
#X text 160 391 Attack;
#X msg 140 599 0;
#X obj 125 629 f;
#X obj 140 573 loadbang;
#X obj 125 664 pack f f;
#X obj 95 742 outlet~;
#X obj 61 57 inlet;
#X obj 116 47 inlet;
#X obj 197 67 inlet;
#X obj 157 55 inlet;
#X obj 248 58 inlet;
#X obj 299 59 inlet;
#X floatatom 113 180 5 0 0 0 - - -, f 5;
#X floatatom 189 180 5 0 0 0 - - -, f 5;
#X obj 125 545 bng 15 250 50 0 empty empty empty 17 7 0 10 -262144
-1 -1;
#X floatatom 230 155 5 0 0 0 tR - -, f 5;
#X connect 0 0 11 0;
#X connect 2 0 0 0;
#X connect 4 0 0 0;
#X connect 6 0 4 0;
#X connect 6 0 10 0;
#X connect 7 0 2 0;
#X connect 7 0 6 0;
#X connect 8 0 9 0;
#X connect 9 0 0 0;
#X connect 10 0 8 0;
#X connect 12 0 36 0;
#X connect 13 0 12 0;
#X connect 14 0 13 1;
#X connect 14 0 18 1;
#X connect 15 0 16 1;
#X connect 15 0 20 0;
#X connect 15 0 43 0;
#X connect 16 0 13 0;
#X connect 17 0 16 0;
#X connect 17 0 18 0;
#X connect 18 0 27 0;
#X connect 19 0 26 0;
#X connect 19 0 44 0;
#X connect 20 0 27 1;
#X connect 26 0 20 0;
#X connect 26 1 20 1;
#X connect 27 0 28 0;
#X connect 28 0 12 0;
#X connect 29 0 28 1;
#X connect 32 0 33 1;
#X connect 33 0 35 0;
#X connect 34 0 32 0;
#X connect 35 0 12 0;
#X connect 37 0 17 0;
#X connect 38 0 15 0;
#X connect 39 0 19 0;
#X connect 40 0 14 0;
#X connect 41 0 29 0;
#X connect 42 0 46 0;
#X connect 45 0 33 0;
#X connect 46 0 45 0;
#X connect 46 0 35 1;
#X coords 0 -1 1 1 180 100 1 100 100;
