#N canvas -8 -8 1366 685 12;
#X obj 110 120 envonoff;
#X obj 807 176 sel 0;
#X obj 807 200 bng 15 250 50 0 empty empty empty 17 7 0 10 -262144
-1 -1;
#X obj 675 209 unpack f f f f f;
#X obj 876 153 unpack f f f f f f;
#X obj 601 214 / 127;
#X obj 625 187 del 5;
#X obj 836 312 *~;
#X obj 299 120 envhmix;
#X obj 836 346 +~;
#X obj 908 325 r adsrmin;
#X obj 675 184 r adsramp;
#X obj 875 126 r adsrfilt;
#X floatatom 872 326 5 0 0 0 - - -;
#X floatatom 872 347 5 0 0 0 - - -;
#X obj 906 306 r adsrwidth;
#X obj 601 146 spigot;
#X obj 634 127 tgl 15 0 empty empty empty 17 7 0 10 -262144 -1 -1 0
1;
#X obj 634 106 r readvel;
#X floatatom 601 166 5 0 0 0 - - -;
#X obj 448 29 inlet;
#X obj 568 29 inlet;
#X obj 718 29 inlet;
#X text 441 -2 Bang;
#X text 561 0 Velocity;
#X text 720 0 NoteOff;
#X obj 565 409 outlet~;
#X text 557 438 Amp Env;
#X obj 829 403 outlet~;
#X text 825 436 Filt Env;
#X connect 0 0 26 0;
#X connect 1 0 2 0;
#X connect 2 0 0 5;
#X connect 2 0 8 6;
#X connect 3 0 0 1;
#X connect 3 1 0 2;
#X connect 3 2 0 3;
#X connect 3 3 0 4;
#X connect 3 4 0 5;
#X connect 4 0 8 1;
#X connect 4 1 8 2;
#X connect 4 2 8 3;
#X connect 4 3 8 4;
#X connect 4 4 8 5;
#X connect 4 5 8 6;
#X connect 5 0 0 1;
#X connect 6 0 0 0;
#X connect 6 0 8 0;
#X connect 7 0 9 0;
#X connect 8 0 7 0;
#X connect 9 0 28 0;
#X connect 10 0 14 0;
#X connect 11 0 3 0;
#X connect 12 0 4 0;
#X connect 13 0 7 1;
#X connect 14 0 9 1;
#X connect 15 0 13 0;
#X connect 16 0 19 0;
#X connect 17 0 16 1;
#X connect 18 0 17 0;
#X connect 19 0 5 0;
#X connect 20 0 6 0;
#X connect 21 0 16 0;
#X connect 22 0 1 0;
#X coords 0 -1 1 1 410 130 1 100 100;
