#N canvas 356 22 924 670 10;
#X obj 284 142 poly 6 1;
#X obj 284 163 pack 0 0 0;
#X obj 284 184 route 1 2 3 4 5 6;
#X obj 224 590 outlet~;
#N canvas 53 22 844 654 synthn1 0;
#X obj 298 121 pink~;
#X obj 198 285 mtof;
#X floatatom 198 308 10 0 0 0 - - -, f 10;
#X obj 298 352 vcf~;
#X msg 319 332 10;
#X obj 298 392 vcf~;
#X msg 319 372 10;
#X obj 298 313 *~;
#X obj 313 171 bng 15 250 50 0 empty empty empty 17 7 0 10 -262144
-1 -1;
#X obj 298 432 vcf~;
#X msg 319 412 10;
#X floatatom 373 434 5 0 0 0 - - -, f 5;
#X floatatom 311 486 5 0 0 0 - - -, f 5;
#X floatatom 325 513 5 0 0 0 - - -, f 5;
#X obj 313 196 envonoff;
#X obj 347 171 unpack f f f f f;
#X obj 352 308 loadbang;
#X msg 373 414 4;
#X obj 398 479 loadbang;
#X msg 398 500 -0.5;
#X msg 434 500 0.5;
#X obj 198 83 inlet;
#X obj 298 573 outlet~;
#X obj 486 171 bng 15 250 50 0 empty empty empty 17 7 0 10 -262144
-1 -1;
#X obj 198 130 stripnote;
#X obj 249 155 sel 0;
#X obj 198 107 unpack 0 0;
#X obj 249 177 s offrn1;
#X obj 486 150 r offrn1;
#X obj 371 336 r qvcf2;
#X floatatom 212 232 5 0 0 0 - chordset1 -, f 5;
#X obj 198 254 j_int;
#X obj 82 88 r temp1;
#X obj 82 113 sel 0 1 2;
#X msg 82 136 0;
#X msg 111 136 1;
#X msg 82 156 0;
#X msg 111 156 1;
#X msg 82 176 0;
#X msg 111 176 1;
#X obj 168 232 j_int2;
#X floatatom 201 210 5 0 0 0 - chordset1 -, f 5;
#X obj 49 208 spigot;
#X obj 49 227 spigot;
#X obj 49 248 spigot;
#X obj 347 148 r noise_env;
#X obj 298 462 compressor~;
#X obj 298 542 clip~ -0.6 0.6;
#X obj 452 408 r noise_comp;
#X obj 485 480 r noise_clip;
#X obj 485 503 * -1;
#X floatatom 117 280 5 0 0 0 - - -, f 5;
#X connect 0 0 7 0;
#X connect 1 0 2 0;
#X connect 1 0 8 0;
#X connect 2 0 3 1;
#X connect 2 0 5 1;
#X connect 2 0 9 1;
#X connect 3 0 5 0;
#X connect 4 0 3 2;
#X connect 5 0 9 0;
#X connect 6 0 5 2;
#X connect 7 0 3 0;
#X connect 8 0 14 0;
#X connect 9 0 46 0;
#X connect 10 0 9 2;
#X connect 11 0 46 1;
#X connect 12 0 47 1;
#X connect 13 0 47 2;
#X connect 14 0 7 1;
#X connect 15 0 14 1;
#X connect 15 1 14 2;
#X connect 15 2 14 3;
#X connect 15 3 14 4;
#X connect 15 4 14 5;
#X connect 16 0 4 0;
#X connect 16 0 6 0;
#X connect 16 0 10 0;
#X connect 16 0 17 0;
#X connect 17 0 11 0;
#X connect 18 0 19 0;
#X connect 18 0 20 0;
#X connect 19 0 47 1;
#X connect 20 0 47 2;
#X connect 21 0 26 0;
#X connect 23 0 14 5;
#X connect 24 0 42 0;
#X connect 24 0 43 0;
#X connect 24 0 44 0;
#X connect 25 0 27 0;
#X connect 26 0 24 0;
#X connect 26 1 24 1;
#X connect 26 1 25 0;
#X connect 28 0 23 0;
#X connect 29 0 3 2;
#X connect 29 0 5 2;
#X connect 29 0 9 2;
#X connect 30 0 31 1;
#X connect 31 0 1 0;
#X connect 32 0 33 0;
#X connect 33 0 35 0;
#X connect 33 0 34 0;
#X connect 33 1 37 0;
#X connect 33 1 36 0;
#X connect 33 2 39 0;
#X connect 33 2 38 0;
#X connect 34 0 43 1;
#X connect 34 0 44 1;
#X connect 35 0 42 1;
#X connect 36 0 42 1;
#X connect 36 0 44 1;
#X connect 37 0 43 1;
#X connect 38 0 42 1;
#X connect 38 0 43 1;
#X connect 39 0 44 1;
#X connect 40 0 1 0;
#X connect 40 0 51 0;
#X connect 41 0 40 1;
#X connect 42 0 40 0;
#X connect 45 0 15 0;
#X connect 46 0 47 0;
#X connect 47 0 22 0;
#X connect 48 0 11 0;
#X connect 49 0 50 0;
#X connect 49 0 47 2;
#X connect 50 0 47 1;
#X restore 284 207 pd synthn1;
#N canvas 248 56 844 654 synthn2 0;
#X obj 198 83 inlet;
#X obj 298 573 outlet~;
#X obj 298 121 pink~;
#X obj 198 285 mtof;
#X floatatom 198 308 10 0 0 0 - - -, f 10;
#X obj 298 352 vcf~;
#X msg 319 332 10;
#X obj 298 392 vcf~;
#X msg 319 372 10;
#X obj 298 313 *~;
#X obj 313 171 bng 15 250 50 0 empty empty empty 17 7 0 10 -262144
-1 -1;
#X obj 298 432 vcf~;
#X msg 319 412 10;
#X floatatom 373 434 5 0 0 0 - - -, f 5;
#X floatatom 311 486 5 0 0 0 - - -, f 5;
#X floatatom 325 513 5 0 0 0 - - -, f 5;
#X obj 313 196 envonoff;
#X obj 347 171 unpack f f f f f;
#X obj 352 308 loadbang;
#X msg 373 414 4;
#X obj 398 479 loadbang;
#X msg 398 500 -0.5;
#X msg 434 500 0.5;
#X obj 486 171 bng 15 250 50 0 empty empty empty 17 7 0 10 -262144
-1 -1;
#X obj 198 130 stripnote;
#X obj 249 155 sel 0;
#X obj 198 107 unpack 0 0;
#X obj 371 336 r qvcf2;
#X floatatom 212 232 5 0 0 0 - chordset1 -, f 5;
#X obj 198 254 j_int;
#X obj 98 126 r temp1;
#X obj 98 151 sel 0 1 2;
#X msg 98 174 0;
#X msg 127 174 1;
#X msg 98 194 0;
#X msg 127 194 1;
#X msg 98 214 0;
#X msg 127 214 1;
#X obj 168 232 j_int2;
#X floatatom 201 210 5 0 0 0 - chordset1 -, f 5;
#X obj 65 246 spigot;
#X obj 65 266 spigot;
#X obj 65 286 spigot;
#X obj 347 148 r noise_env;
#X obj 298 462 compressor~;
#X obj 298 542 clip~ -0.6 0.6;
#X obj 452 408 r noise_comp;
#X obj 485 480 r noise_clip;
#X obj 485 503 * -1;
#X obj 249 177 s offrn2;
#X obj 486 150 r offrn2;
#X connect 0 0 26 0;
#X connect 2 0 9 0;
#X connect 3 0 4 0;
#X connect 3 0 10 0;
#X connect 4 0 5 1;
#X connect 4 0 7 1;
#X connect 4 0 11 1;
#X connect 5 0 7 0;
#X connect 6 0 5 2;
#X connect 7 0 11 0;
#X connect 8 0 7 2;
#X connect 9 0 5 0;
#X connect 10 0 16 0;
#X connect 11 0 44 0;
#X connect 12 0 11 2;
#X connect 13 0 44 1;
#X connect 14 0 45 1;
#X connect 15 0 45 2;
#X connect 16 0 9 1;
#X connect 17 0 16 1;
#X connect 17 1 16 2;
#X connect 17 2 16 3;
#X connect 17 3 16 4;
#X connect 17 4 16 5;
#X connect 18 0 6 0;
#X connect 18 0 8 0;
#X connect 18 0 12 0;
#X connect 18 0 19 0;
#X connect 19 0 13 0;
#X connect 20 0 21 0;
#X connect 20 0 22 0;
#X connect 21 0 45 1;
#X connect 22 0 45 2;
#X connect 23 0 16 5;
#X connect 24 0 40 0;
#X connect 24 0 41 0;
#X connect 24 0 42 0;
#X connect 25 0 49 0;
#X connect 26 0 24 0;
#X connect 26 1 24 1;
#X connect 26 1 25 0;
#X connect 27 0 5 2;
#X connect 27 0 7 2;
#X connect 27 0 11 2;
#X connect 28 0 29 1;
#X connect 29 0 3 0;
#X connect 30 0 31 0;
#X connect 31 0 33 0;
#X connect 31 0 32 0;
#X connect 31 1 35 0;
#X connect 31 1 34 0;
#X connect 31 2 37 0;
#X connect 31 2 36 0;
#X connect 32 0 41 1;
#X connect 32 0 42 1;
#X connect 33 0 40 1;
#X connect 34 0 40 1;
#X connect 34 0 42 1;
#X connect 35 0 41 1;
#X connect 36 0 40 1;
#X connect 36 0 41 1;
#X connect 37 0 42 1;
#X connect 38 0 3 0;
#X connect 39 0 38 1;
#X connect 40 0 38 0;
#X connect 43 0 17 0;
#X connect 44 0 45 0;
#X connect 45 0 1 0;
#X connect 46 0 13 0;
#X connect 47 0 48 0;
#X connect 47 0 45 2;
#X connect 48 0 45 1;
#X connect 50 0 23 0;
#X restore 300 227 pd synthn2;
#N canvas 248 56 844 654 synthn3 0;
#X obj 198 83 inlet;
#X obj 298 573 outlet~;
#X obj 298 121 pink~;
#X obj 198 285 mtof;
#X floatatom 198 308 10 0 0 0 - - -, f 10;
#X obj 298 352 vcf~;
#X msg 319 332 10;
#X obj 298 392 vcf~;
#X msg 319 372 10;
#X obj 298 313 *~;
#X obj 313 171 bng 15 250 50 0 empty empty empty 17 7 0 10 -262144
-1 -1;
#X obj 298 432 vcf~;
#X msg 319 412 10;
#X floatatom 373 434 5 0 0 0 - - -, f 5;
#X floatatom 311 486 5 0 0 0 - - -, f 5;
#X floatatom 325 513 5 0 0 0 - - -, f 5;
#X obj 313 196 envonoff;
#X obj 347 171 unpack f f f f f;
#X obj 352 308 loadbang;
#X msg 373 414 4;
#X obj 398 479 loadbang;
#X msg 398 500 -0.5;
#X msg 434 500 0.5;
#X obj 486 171 bng 15 250 50 0 empty empty empty 17 7 0 10 -262144
-1 -1;
#X obj 198 130 stripnote;
#X obj 249 155 sel 0;
#X obj 198 107 unpack 0 0;
#X obj 371 336 r qvcf2;
#X floatatom 212 232 5 0 0 0 - chordset1 -, f 5;
#X obj 198 254 j_int;
#X obj 98 126 r temp1;
#X obj 98 151 sel 0 1 2;
#X msg 98 174 0;
#X msg 127 174 1;
#X msg 98 194 0;
#X msg 127 194 1;
#X msg 98 214 0;
#X msg 127 214 1;
#X obj 168 232 j_int2;
#X floatatom 201 210 5 0 0 0 - chordset1 -, f 5;
#X obj 65 246 spigot;
#X obj 65 266 spigot;
#X obj 65 286 spigot;
#X obj 347 148 r noise_env;
#X obj 298 462 compressor~;
#X obj 298 542 clip~ -0.6 0.6;
#X obj 452 408 r noise_comp;
#X obj 485 480 r noise_clip;
#X obj 485 503 * -1;
#X obj 249 177 s offrn3;
#X obj 486 150 r offrn3;
#X connect 0 0 26 0;
#X connect 2 0 9 0;
#X connect 3 0 4 0;
#X connect 3 0 10 0;
#X connect 4 0 5 1;
#X connect 4 0 7 1;
#X connect 4 0 11 1;
#X connect 5 0 7 0;
#X connect 6 0 5 2;
#X connect 7 0 11 0;
#X connect 8 0 7 2;
#X connect 9 0 5 0;
#X connect 10 0 16 0;
#X connect 11 0 44 0;
#X connect 12 0 11 2;
#X connect 13 0 44 1;
#X connect 14 0 45 1;
#X connect 15 0 45 2;
#X connect 16 0 9 1;
#X connect 17 0 16 1;
#X connect 17 1 16 2;
#X connect 17 2 16 3;
#X connect 17 3 16 4;
#X connect 17 4 16 5;
#X connect 18 0 6 0;
#X connect 18 0 8 0;
#X connect 18 0 12 0;
#X connect 18 0 19 0;
#X connect 19 0 13 0;
#X connect 20 0 21 0;
#X connect 20 0 22 0;
#X connect 21 0 45 1;
#X connect 22 0 45 2;
#X connect 23 0 16 5;
#X connect 24 0 40 0;
#X connect 24 0 41 0;
#X connect 24 0 42 0;
#X connect 25 0 49 0;
#X connect 26 0 24 0;
#X connect 26 1 24 1;
#X connect 26 1 25 0;
#X connect 27 0 5 2;
#X connect 27 0 7 2;
#X connect 27 0 11 2;
#X connect 28 0 29 1;
#X connect 29 0 3 0;
#X connect 30 0 31 0;
#X connect 31 0 33 0;
#X connect 31 0 32 0;
#X connect 31 1 35 0;
#X connect 31 1 34 0;
#X connect 31 2 37 0;
#X connect 31 2 36 0;
#X connect 32 0 41 1;
#X connect 32 0 42 1;
#X connect 33 0 40 1;
#X connect 34 0 40 1;
#X connect 34 0 42 1;
#X connect 35 0 41 1;
#X connect 36 0 40 1;
#X connect 36 0 41 1;
#X connect 37 0 42 1;
#X connect 38 0 3 0;
#X connect 39 0 38 1;
#X connect 40 0 38 0;
#X connect 43 0 17 0;
#X connect 44 0 45 0;
#X connect 45 0 1 0;
#X connect 46 0 13 0;
#X connect 47 0 48 0;
#X connect 47 0 45 2;
#X connect 48 0 45 1;
#X connect 50 0 23 0;
#X restore 317 247 pd synthn3;
#N canvas 248 56 844 654 synthn4 0;
#X obj 198 83 inlet;
#X obj 298 573 outlet~;
#X obj 298 121 pink~;
#X obj 198 285 mtof;
#X floatatom 198 308 10 0 0 0 - - -, f 10;
#X obj 298 352 vcf~;
#X msg 319 332 10;
#X obj 298 392 vcf~;
#X msg 319 372 10;
#X obj 298 313 *~;
#X obj 313 171 bng 15 250 50 0 empty empty empty 17 7 0 10 -262144
-1 -1;
#X obj 298 432 vcf~;
#X msg 319 412 10;
#X floatatom 373 434 5 0 0 0 - - -, f 5;
#X floatatom 311 486 5 0 0 0 - - -, f 5;
#X floatatom 325 513 5 0 0 0 - - -, f 5;
#X obj 313 196 envonoff;
#X obj 347 171 unpack f f f f f;
#X obj 352 308 loadbang;
#X msg 373 414 4;
#X obj 398 479 loadbang;
#X msg 398 500 -0.5;
#X msg 434 500 0.5;
#X obj 486 171 bng 15 250 50 0 empty empty empty 17 7 0 10 -262144
-1 -1;
#X obj 198 130 stripnote;
#X obj 249 155 sel 0;
#X obj 198 107 unpack 0 0;
#X obj 371 336 r qvcf2;
#X floatatom 212 232 5 0 0 0 - chordset1 -, f 5;
#X obj 198 254 j_int;
#X obj 98 126 r temp1;
#X obj 98 151 sel 0 1 2;
#X msg 98 174 0;
#X msg 127 174 1;
#X msg 98 194 0;
#X msg 127 194 1;
#X msg 98 214 0;
#X msg 127 214 1;
#X obj 168 232 j_int2;
#X floatatom 201 210 5 0 0 0 - chordset1 -, f 5;
#X obj 65 246 spigot;
#X obj 65 266 spigot;
#X obj 65 286 spigot;
#X obj 347 148 r noise_env;
#X obj 298 462 compressor~;
#X obj 298 542 clip~ -0.6 0.6;
#X obj 452 408 r noise_comp;
#X obj 485 480 r noise_clip;
#X obj 485 503 * -1;
#X obj 249 177 s offrn4;
#X obj 486 150 r offrn4;
#X connect 0 0 26 0;
#X connect 2 0 9 0;
#X connect 3 0 4 0;
#X connect 3 0 10 0;
#X connect 4 0 5 1;
#X connect 4 0 7 1;
#X connect 4 0 11 1;
#X connect 5 0 7 0;
#X connect 6 0 5 2;
#X connect 7 0 11 0;
#X connect 8 0 7 2;
#X connect 9 0 5 0;
#X connect 10 0 16 0;
#X connect 11 0 44 0;
#X connect 12 0 11 2;
#X connect 13 0 44 1;
#X connect 14 0 45 1;
#X connect 15 0 45 2;
#X connect 16 0 9 1;
#X connect 17 0 16 1;
#X connect 17 1 16 2;
#X connect 17 2 16 3;
#X connect 17 3 16 4;
#X connect 17 4 16 5;
#X connect 18 0 6 0;
#X connect 18 0 8 0;
#X connect 18 0 12 0;
#X connect 18 0 19 0;
#X connect 19 0 13 0;
#X connect 20 0 21 0;
#X connect 20 0 22 0;
#X connect 21 0 45 1;
#X connect 22 0 45 2;
#X connect 23 0 16 5;
#X connect 24 0 40 0;
#X connect 24 0 41 0;
#X connect 24 0 42 0;
#X connect 25 0 49 0;
#X connect 26 0 24 0;
#X connect 26 1 24 1;
#X connect 26 1 25 0;
#X connect 27 0 5 2;
#X connect 27 0 7 2;
#X connect 27 0 11 2;
#X connect 28 0 29 1;
#X connect 29 0 3 0;
#X connect 30 0 31 0;
#X connect 31 0 33 0;
#X connect 31 0 32 0;
#X connect 31 1 35 0;
#X connect 31 1 34 0;
#X connect 31 2 37 0;
#X connect 31 2 36 0;
#X connect 32 0 41 1;
#X connect 32 0 42 1;
#X connect 33 0 40 1;
#X connect 34 0 40 1;
#X connect 34 0 42 1;
#X connect 35 0 41 1;
#X connect 36 0 40 1;
#X connect 36 0 41 1;
#X connect 37 0 42 1;
#X connect 38 0 3 0;
#X connect 39 0 38 1;
#X connect 40 0 38 0;
#X connect 43 0 17 0;
#X connect 44 0 45 0;
#X connect 45 0 1 0;
#X connect 46 0 13 0;
#X connect 47 0 48 0;
#X connect 47 0 45 2;
#X connect 48 0 45 1;
#X connect 50 0 23 0;
#X restore 333 267 pd synthn4;
#N canvas 248 56 844 654 synthn5 0;
#X obj 198 83 inlet;
#X obj 298 573 outlet~;
#X obj 298 121 pink~;
#X obj 198 285 mtof;
#X floatatom 198 308 10 0 0 0 - - -, f 10;
#X obj 298 352 vcf~;
#X msg 319 332 10;
#X obj 298 392 vcf~;
#X msg 319 372 10;
#X obj 298 313 *~;
#X obj 313 171 bng 15 250 50 0 empty empty empty 17 7 0 10 -262144
-1 -1;
#X obj 298 432 vcf~;
#X msg 319 412 10;
#X floatatom 373 434 5 0 0 0 - - -, f 5;
#X floatatom 311 486 5 0 0 0 - - -, f 5;
#X floatatom 325 513 5 0 0 0 - - -, f 5;
#X obj 313 196 envonoff;
#X obj 347 171 unpack f f f f f;
#X obj 352 308 loadbang;
#X msg 373 414 4;
#X obj 398 479 loadbang;
#X msg 398 500 -0.5;
#X msg 434 500 0.5;
#X obj 486 171 bng 15 250 50 0 empty empty empty 17 7 0 10 -262144
-1 -1;
#X obj 198 130 stripnote;
#X obj 249 155 sel 0;
#X obj 198 107 unpack 0 0;
#X obj 371 336 r qvcf2;
#X floatatom 212 232 5 0 0 0 - chordset1 -, f 5;
#X obj 198 254 j_int;
#X obj 98 126 r temp1;
#X obj 98 151 sel 0 1 2;
#X msg 98 174 0;
#X msg 127 174 1;
#X msg 98 194 0;
#X msg 127 194 1;
#X msg 98 214 0;
#X msg 127 214 1;
#X obj 168 232 j_int2;
#X floatatom 201 210 5 0 0 0 - chordset1 -, f 5;
#X obj 65 246 spigot;
#X obj 65 266 spigot;
#X obj 65 286 spigot;
#X obj 347 148 r noise_env;
#X obj 298 462 compressor~;
#X obj 298 542 clip~ -0.6 0.6;
#X obj 452 408 r noise_comp;
#X obj 485 480 r noise_clip;
#X obj 485 503 * -1;
#X obj 249 177 s offrn5;
#X obj 486 150 r offrn5;
#X connect 0 0 26 0;
#X connect 2 0 9 0;
#X connect 3 0 4 0;
#X connect 3 0 10 0;
#X connect 4 0 5 1;
#X connect 4 0 7 1;
#X connect 4 0 11 1;
#X connect 5 0 7 0;
#X connect 6 0 5 2;
#X connect 7 0 11 0;
#X connect 8 0 7 2;
#X connect 9 0 5 0;
#X connect 10 0 16 0;
#X connect 11 0 44 0;
#X connect 12 0 11 2;
#X connect 13 0 44 1;
#X connect 14 0 45 1;
#X connect 15 0 45 2;
#X connect 16 0 9 1;
#X connect 17 0 16 1;
#X connect 17 1 16 2;
#X connect 17 2 16 3;
#X connect 17 3 16 4;
#X connect 17 4 16 5;
#X connect 18 0 6 0;
#X connect 18 0 8 0;
#X connect 18 0 12 0;
#X connect 18 0 19 0;
#X connect 19 0 13 0;
#X connect 20 0 21 0;
#X connect 20 0 22 0;
#X connect 21 0 45 1;
#X connect 22 0 45 2;
#X connect 23 0 16 5;
#X connect 24 0 40 0;
#X connect 24 0 41 0;
#X connect 24 0 42 0;
#X connect 25 0 49 0;
#X connect 26 0 24 0;
#X connect 26 1 24 1;
#X connect 26 1 25 0;
#X connect 27 0 5 2;
#X connect 27 0 7 2;
#X connect 27 0 11 2;
#X connect 28 0 29 1;
#X connect 29 0 3 0;
#X connect 30 0 31 0;
#X connect 31 0 33 0;
#X connect 31 0 32 0;
#X connect 31 1 35 0;
#X connect 31 1 34 0;
#X connect 31 2 37 0;
#X connect 31 2 36 0;
#X connect 32 0 41 1;
#X connect 32 0 42 1;
#X connect 33 0 40 1;
#X connect 34 0 40 1;
#X connect 34 0 42 1;
#X connect 35 0 41 1;
#X connect 36 0 40 1;
#X connect 36 0 41 1;
#X connect 37 0 42 1;
#X connect 38 0 3 0;
#X connect 39 0 38 1;
#X connect 40 0 38 0;
#X connect 43 0 17 0;
#X connect 44 0 45 0;
#X connect 45 0 1 0;
#X connect 46 0 13 0;
#X connect 47 0 48 0;
#X connect 47 0 45 2;
#X connect 48 0 45 1;
#X connect 50 0 23 0;
#X restore 350 287 pd synthn5;
#N canvas 248 56 844 654 synthn6 0;
#X obj 198 83 inlet;
#X obj 298 573 outlet~;
#X obj 298 121 pink~;
#X obj 198 285 mtof;
#X floatatom 198 308 10 0 0 0 - - -, f 10;
#X obj 298 352 vcf~;
#X msg 319 332 10;
#X obj 298 392 vcf~;
#X msg 319 372 10;
#X obj 298 313 *~;
#X obj 313 171 bng 15 250 50 0 empty empty empty 17 7 0 10 -262144
-1 -1;
#X obj 298 432 vcf~;
#X msg 319 412 10;
#X floatatom 373 434 5 0 0 0 - - -, f 5;
#X floatatom 311 486 5 0 0 0 - - -, f 5;
#X floatatom 325 513 5 0 0 0 - - -, f 5;
#X obj 313 196 envonoff;
#X obj 347 171 unpack f f f f f;
#X obj 352 308 loadbang;
#X msg 373 414 4;
#X obj 398 479 loadbang;
#X msg 398 500 -0.5;
#X msg 434 500 0.5;
#X obj 486 171 bng 15 250 50 0 empty empty empty 17 7 0 10 -262144
-1 -1;
#X obj 198 130 stripnote;
#X obj 249 155 sel 0;
#X obj 198 107 unpack 0 0;
#X obj 371 336 r qvcf2;
#X floatatom 212 232 5 0 0 0 - chordset1 -, f 5;
#X obj 198 254 j_int;
#X obj 98 126 r temp1;
#X obj 98 151 sel 0 1 2;
#X msg 98 174 0;
#X msg 127 174 1;
#X msg 98 194 0;
#X msg 127 194 1;
#X msg 98 214 0;
#X msg 127 214 1;
#X obj 168 232 j_int2;
#X floatatom 201 210 5 0 0 0 - chordset1 -, f 5;
#X obj 65 246 spigot;
#X obj 65 266 spigot;
#X obj 65 286 spigot;
#X obj 347 148 r noise_env;
#X obj 298 462 compressor~;
#X obj 298 542 clip~ -0.6 0.6;
#X obj 452 408 r noise_comp;
#X obj 485 480 r noise_clip;
#X obj 485 503 * -1;
#X obj 249 177 s offrn6;
#X obj 486 150 r offrn6;
#X connect 0 0 26 0;
#X connect 2 0 9 0;
#X connect 3 0 4 0;
#X connect 3 0 10 0;
#X connect 4 0 5 1;
#X connect 4 0 7 1;
#X connect 4 0 11 1;
#X connect 5 0 7 0;
#X connect 6 0 5 2;
#X connect 7 0 11 0;
#X connect 8 0 7 2;
#X connect 9 0 5 0;
#X connect 10 0 16 0;
#X connect 11 0 44 0;
#X connect 12 0 11 2;
#X connect 13 0 44 1;
#X connect 14 0 45 1;
#X connect 15 0 45 2;
#X connect 16 0 9 1;
#X connect 17 0 16 1;
#X connect 17 1 16 2;
#X connect 17 2 16 3;
#X connect 17 3 16 4;
#X connect 17 4 16 5;
#X connect 18 0 6 0;
#X connect 18 0 8 0;
#X connect 18 0 12 0;
#X connect 18 0 19 0;
#X connect 19 0 13 0;
#X connect 20 0 21 0;
#X connect 20 0 22 0;
#X connect 21 0 45 1;
#X connect 22 0 45 2;
#X connect 23 0 16 5;
#X connect 24 0 40 0;
#X connect 24 0 41 0;
#X connect 24 0 42 0;
#X connect 25 0 49 0;
#X connect 26 0 24 0;
#X connect 26 1 24 1;
#X connect 26 1 25 0;
#X connect 27 0 5 2;
#X connect 27 0 7 2;
#X connect 27 0 11 2;
#X connect 28 0 29 1;
#X connect 29 0 3 0;
#X connect 30 0 31 0;
#X connect 31 0 33 0;
#X connect 31 0 32 0;
#X connect 31 1 35 0;
#X connect 31 1 34 0;
#X connect 31 2 37 0;
#X connect 31 2 36 0;
#X connect 32 0 41 1;
#X connect 32 0 42 1;
#X connect 33 0 40 1;
#X connect 34 0 40 1;
#X connect 34 0 42 1;
#X connect 35 0 41 1;
#X connect 36 0 40 1;
#X connect 36 0 41 1;
#X connect 37 0 42 1;
#X connect 38 0 3 0;
#X connect 39 0 38 1;
#X connect 40 0 38 0;
#X connect 43 0 17 0;
#X connect 44 0 45 0;
#X connect 45 0 1 0;
#X connect 46 0 13 0;
#X connect 47 0 48 0;
#X connect 47 0 45 2;
#X connect 48 0 45 1;
#X connect 50 0 23 0;
#X restore 366 307 pd synthn6;
#X obj 283 117 inlet;
#X obj 323 117 inlet;
#X obj 66 517 *~;
#X obj 224 285 *~;
#X obj 146 192 vsl 15 90 0 0.6 0 0 empty empty empty 0 -9 0 10 -261234
-1 -1 4450 1;
#X msg 179 210 0.3;
#X obj 179 185 loadbang;
#X obj 240 306 *~;
#X obj 257 326 *~;
#X obj 273 346 *~;
#X obj 290 366 *~;
#X obj 306 386 *~;
#X obj 224 430 linear_pan~;
#X obj 290 411 hsl 50 15 0 1 0 0 empty empty empty -2 -8 0 10 -262144
-1 -1 0 1;
#X obj 240 452 linear_pan~;
#X obj 306 433 hsl 50 15 0 1 0 0 empty empty empty -2 -8 0 10 -262144
-1 -1 1225 1;
#X obj 257 474 linear_pan~;
#X obj 323 455 hsl 50 15 0 1 0 0 empty empty empty -2 -8 0 10 -262144
-1 -1 2205 1;
#X obj 273 497 linear_pan~;
#X obj 339 478 hsl 50 15 0 1 0 0 empty empty empty -2 -8 0 10 -262144
-1 -1 2695 1;
#X obj 290 520 linear_pan~;
#X obj 356 501 hsl 50 15 0 1 0 0 empty empty empty -2 -8 0 10 -262144
-1 -1 3675 1;
#X obj 306 543 linear_pan~;
#X obj 372 524 hsl 50 15 0 1 0 0 empty empty empty -2 -8 0 10 -262144
-1 -1 4900 1;
#X obj 277 590 outlet~;
#X obj 427 373 r noise_pan;
#X obj 427 395 unpack f f f f f f;
#X connect 0 0 1 0;
#X connect 0 1 1 1;
#X connect 0 2 1 2;
#X connect 1 0 2 0;
#X connect 2 0 4 0;
#X connect 2 1 5 0;
#X connect 2 2 6 0;
#X connect 2 3 7 0;
#X connect 2 4 8 0;
#X connect 2 5 9 0;
#X connect 4 0 13 0;
#X connect 5 0 17 0;
#X connect 6 0 18 0;
#X connect 7 0 19 0;
#X connect 8 0 20 0;
#X connect 9 0 21 0;
#X connect 10 0 0 0;
#X connect 11 0 0 1;
#X connect 13 0 22 0;
#X connect 14 0 13 1;
#X connect 14 0 17 1;
#X connect 14 0 18 1;
#X connect 14 0 19 1;
#X connect 14 0 20 1;
#X connect 14 0 21 1;
#X connect 15 0 14 0;
#X connect 16 0 15 0;
#X connect 17 0 24 0;
#X connect 18 0 26 0;
#X connect 19 0 28 0;
#X connect 20 0 30 0;
#X connect 21 0 32 0;
#X connect 22 0 3 0;
#X connect 22 1 34 0;
#X connect 23 0 22 1;
#X connect 24 0 3 0;
#X connect 24 1 34 0;
#X connect 25 0 24 1;
#X connect 26 0 3 0;
#X connect 26 1 34 0;
#X connect 27 0 26 1;
#X connect 28 0 3 0;
#X connect 28 1 34 0;
#X connect 29 0 28 1;
#X connect 30 0 3 0;
#X connect 30 1 34 0;
#X connect 31 0 30 1;
#X connect 32 0 3 0;
#X connect 32 1 34 0;
#X connect 33 0 32 1;
#X connect 35 0 36 0;
#X connect 36 0 23 0;
#X connect 36 1 25 0;
#X connect 36 2 27 0;
#X connect 36 3 29 0;
#X connect 36 4 31 0;
#X connect 36 5 33 0;
