#N canvas 4 0 932 763 10;
#X obj 303 603 outlet~;
#X obj 303 298 *~;
#X obj 319 319 *~;
#X obj 336 339 *~;
#X obj 352 359 *~;
#X obj 369 379 *~;
#X obj 385 399 *~;
#X obj 303 443 linear_pan~;
#X obj 369 424 hsl 50 15 0 1 0 0 empty empty empty -2 -8 0 10 -262144
-1 -1 0 1;
#X obj 319 465 linear_pan~;
#X obj 385 446 hsl 50 15 0 1 0 0 empty empty empty -2 -8 0 10 -262144
-1 -1 1225 1;
#X obj 336 487 linear_pan~;
#X obj 402 468 hsl 50 15 0 1 0 0 empty empty empty -2 -8 0 10 -262144
-1 -1 2205 1;
#X obj 352 510 linear_pan~;
#X obj 418 491 hsl 50 15 0 1 0 0 empty empty empty -2 -8 0 10 -262144
-1 -1 2695 1;
#X obj 369 533 linear_pan~;
#X obj 435 514 hsl 50 15 0 1 0 0 empty empty empty -2 -8 0 10 -262144
-1 -1 3675 1;
#X obj 385 556 linear_pan~;
#X obj 451 537 hsl 50 15 0 1 0 0 empty empty empty -2 -8 0 10 -262144
-1 -1 4900 1;
#X obj 356 603 outlet~;
#X obj 176 407 unpack f f f f f f;
#X obj 441 298 *~;
#X obj 457 319 *~;
#X obj 474 339 *~;
#X obj 490 359 *~;
#X obj 507 379 *~;
#X obj 523 399 *~;
#X obj 441 443 linear_pan~;
#X obj 507 424 hsl 50 15 0 1 0 0 empty empty empty -2 -8 0 10 -262144
-1 -1 0 1;
#X obj 457 465 linear_pan~;
#X obj 523 446 hsl 50 15 0 1 0 0 empty empty empty -2 -8 0 10 -262144
-1 -1 1225 1;
#X obj 474 487 linear_pan~;
#X obj 540 468 hsl 50 15 0 1 0 0 empty empty empty -2 -8 0 10 -262144
-1 -1 2205 1;
#X obj 490 510 linear_pan~;
#X obj 556 491 hsl 50 15 0 1 0 0 empty empty empty -2 -8 0 10 -262144
-1 -1 2695 1;
#X obj 507 533 linear_pan~;
#X obj 573 514 hsl 50 15 0 1 0 0 empty empty empty -2 -8 0 10 -262144
-1 -1 3675 1;
#X obj 523 556 linear_pan~;
#X obj 589 537 hsl 50 15 0 1 0 0 empty empty empty -2 -8 0 10 -262144
-1 -1 4900 1;
#X obj 710 166 vsl 20 128 0 1 0 0 empty empty empty 0 -9 0 10 -261234
-1 -1 6350 1;
#X obj 176 385 r noise_pan;
#X obj 287 131 versatilesynth;
#X obj 287 46 inlet;
#X obj 332 46 inlet;
#X obj 287 69 poly 6 1;
#X obj 287 90 pack 0 0 0;
#X obj 287 111 route 1 2 3 4 5 6;
#X obj 709 88 loadbang;
#X msg 709 112 0.5;
#X obj 302 151 versatilesynth;
#X obj 320 171 versatilesynth;
#X obj 337 191 versatilesynth;
#X obj 353 211 versatilesynth;
#X obj 369 231 versatilesynth;
#X connect 1 0 7 0;
#X connect 2 0 9 0;
#X connect 3 0 11 0;
#X connect 4 0 13 0;
#X connect 5 0 15 0;
#X connect 6 0 17 0;
#X connect 7 0 0 0;
#X connect 7 1 19 0;
#X connect 8 0 7 1;
#X connect 9 0 0 0;
#X connect 9 1 19 0;
#X connect 10 0 9 1;
#X connect 11 0 0 0;
#X connect 11 1 19 0;
#X connect 12 0 11 1;
#X connect 13 0 0 0;
#X connect 13 1 19 0;
#X connect 14 0 13 1;
#X connect 15 0 0 0;
#X connect 15 1 19 0;
#X connect 16 0 15 1;
#X connect 17 0 0 0;
#X connect 17 1 19 0;
#X connect 18 0 17 1;
#X connect 20 0 8 0;
#X connect 20 0 28 0;
#X connect 20 1 10 0;
#X connect 20 1 30 0;
#X connect 20 2 12 0;
#X connect 20 2 32 0;
#X connect 20 3 14 0;
#X connect 20 3 34 0;
#X connect 20 4 16 0;
#X connect 20 4 36 0;
#X connect 20 5 18 0;
#X connect 20 5 38 0;
#X connect 21 0 27 0;
#X connect 22 0 29 0;
#X connect 23 0 31 0;
#X connect 24 0 33 0;
#X connect 25 0 35 0;
#X connect 26 0 37 0;
#X connect 27 0 0 0;
#X connect 27 1 19 0;
#X connect 28 0 27 1;
#X connect 29 0 0 0;
#X connect 29 1 19 0;
#X connect 30 0 29 1;
#X connect 31 0 0 0;
#X connect 31 1 19 0;
#X connect 32 0 31 1;
#X connect 33 0 0 0;
#X connect 33 1 19 0;
#X connect 34 0 33 1;
#X connect 35 0 0 0;
#X connect 35 1 19 0;
#X connect 36 0 35 1;
#X connect 37 0 0 0;
#X connect 37 1 19 0;
#X connect 38 0 37 1;
#X connect 39 0 1 1;
#X connect 39 0 2 1;
#X connect 39 0 3 1;
#X connect 39 0 4 1;
#X connect 39 0 5 1;
#X connect 39 0 6 1;
#X connect 39 0 21 1;
#X connect 39 0 22 1;
#X connect 39 0 23 1;
#X connect 39 0 24 1;
#X connect 39 0 25 1;
#X connect 39 0 26 1;
#X connect 40 0 20 0;
#X connect 41 0 1 0;
#X connect 41 1 21 0;
#X connect 42 0 44 0;
#X connect 43 0 44 1;
#X connect 44 0 45 0;
#X connect 44 1 45 1;
#X connect 44 2 45 2;
#X connect 45 0 46 0;
#X connect 46 0 41 0;
#X connect 46 1 49 0;
#X connect 46 2 50 0;
#X connect 46 3 51 0;
#X connect 46 4 52 0;
#X connect 46 5 53 0;
#X connect 47 0 48 0;
#X connect 48 0 39 0;
#X connect 49 0 2 0;
#X connect 49 1 22 0;
#X connect 50 0 3 0;
#X connect 50 1 23 0;
#X connect 51 0 4 0;
#X connect 51 1 24 0;
#X connect 52 0 5 0;
#X connect 52 1 25 0;
#X connect 53 0 6 0;
#X connect 53 1 26 0;
